<svg xmlns="http://www.w3.org/2000/svg" viewBox="0 0 787 117"><defs><style>.cls-1{fill:#e2e2e2;}</style></defs><g id="Layer_2" data-name="Layer 2"><g id="Layer_1-2" data-name="Layer 1"><g id="Layer_2-2" data-name="Layer 2"><g id="Layer_1-2-2" data-name="Layer 1-2"><path class="cls-1" d="M0,100a100,100,0,0,1,200,0"/><path class="cls-1" d="M100,100a100,100,0,0,1,200,0"/><path class="cls-1" d="M200,100a100,100,0,0,1,200,0"/><path class="cls-1" d="M300,100a100,100,0,0,1,200,0"/><path class="cls-1" d="M400,100a100,100,0,0,1,200,0"/><path class="cls-1" d="M487,100a100,100,0,0,1,200,0"/><path class="cls-1" d="M587,100a100,100,0,0,1,200,0"/><path class="cls-1" d="M787,100H687A100,100,0,0,1,787,0"/><path class="cls-1" d="M0,100H100A100,100,0,0,0,0,0"/><rect class="cls-1" y="23" width="787" height="94"/></g></g></g></g></svg>