<svg xmlns="http://www.w3.org/2000/svg" viewBox="0 0 1782.19 1139"><defs><style>.cls-1{fill:#f7bc46;}.cls-2{fill:#3a3a3a;}</style></defs><g id="Layer_2" data-name="Layer 2"><g id="Layer_1-2" data-name="Layer 1"><rect class="cls-1" width="1782.19" height="1139"/><circle class="cls-2" cx="175.09" cy="153" r="19"/><circle class="cls-2" cx="107.09" cy="259" r="49"/><circle class="cls-2" cx="275.09" cy="341" r="34"/><circle class="cls-2" cx="350.09" cy="184" r="75"/><circle class="cls-2" cx="175.09" cy="526" r="31"/><circle class="cls-2" cx="107.09" cy="632" r="68"/><circle class="cls-2" cx="275.09" cy="714" r="25"/><circle class="cls-2" cx="350.09" cy="557" r="41"/><circle class="cls-2" cx="141.09" cy="825" r="34.5"/><circle class="cls-2" cx="87.59" cy="1023.5" r="69"/><circle class="cls-2" cx="213.59" cy="917.5" r="20"/><circle class="cls-2" cx="277.09" cy="1012" r="27.5"/><circle class="cls-2" cx="371.09" cy="882" r="70.5"/><circle class="cls-2" cx="614.09" cy="154" r="19"/><circle class="cls-2" cx="546.09" cy="260" r="49"/><circle class="cls-2" cx="714.09" cy="342" r="34"/><circle class="cls-2" cx="789.09" cy="185" r="75"/><circle class="cls-2" cx="614.09" cy="527" r="31"/><circle class="cls-2" cx="546.09" cy="633" r="68"/><circle class="cls-2" cx="714.09" cy="715" r="25"/><circle class="cls-2" cx="789.09" cy="558" r="41"/><circle class="cls-2" cx="580.09" cy="826" r="34.5"/><circle class="cls-2" cx="526.59" cy="1024.5" r="69"/><circle class="cls-2" cx="652.59" cy="918.5" r="20"/><circle class="cls-2" cx="716.09" cy="1013" r="27.5"/><circle class="cls-2" cx="810.09" cy="883" r="70.5"/><circle class="cls-2" cx="1078.09" cy="154" r="19"/><circle class="cls-2" cx="1010.09" cy="260" r="49"/><circle class="cls-2" cx="1178.09" cy="342" r="34"/><circle class="cls-2" cx="1253.09" cy="185" r="75"/><circle class="cls-2" cx="1078.09" cy="527" r="31"/><circle class="cls-2" cx="1010.09" cy="633" r="68"/><circle class="cls-2" cx="1178.09" cy="715" r="25"/><circle class="cls-2" cx="1253.09" cy="558" r="41"/><circle class="cls-2" cx="1044.09" cy="826" r="34.5"/><circle class="cls-2" cx="990.59" cy="1024.5" r="69"/><circle class="cls-2" cx="1116.59" cy="918.5" r="20"/><circle class="cls-2" cx="1180.09" cy="1013" r="27.5"/><circle class="cls-2" cx="1274.09" cy="883" r="70.5"/><circle class="cls-2" cx="1511.09" cy="154" r="19"/><circle class="cls-2" cx="1443.09" cy="260" r="49"/><circle class="cls-2" cx="1611.09" cy="342" r="34"/><circle class="cls-2" cx="1686.09" cy="185" r="75"/><circle class="cls-2" cx="1511.09" cy="527" r="31"/><circle class="cls-2" cx="1443.09" cy="633" r="68"/><circle class="cls-2" cx="1611.09" cy="715" r="25"/><circle class="cls-2" cx="1686.09" cy="558" r="41"/><circle class="cls-2" cx="1477.09" cy="826" r="34.5"/><circle class="cls-2" cx="1423.59" cy="1024.5" r="69"/><circle class="cls-2" cx="1549.59" cy="918.5" r="20"/><circle class="cls-2" cx="1613.09" cy="1013" r="27.5"/><circle class="cls-2" cx="1707.09" cy="883" r="70.5"/></g></g></svg>