<svg xmlns="http://www.w3.org/2000/svg" viewBox="0 0 693.14 412.77"><defs><style>.cls-1{fill:#ebebeb;}.cls-2{fill:#e0e0e0;}.cls-3{fill:#fafafa;}.cls-4{fill:#fb0;}.cls-5{opacity:0.5;}.cls-6{fill:#fff;}.cls-7{fill:#263238;}.cls-8{opacity:0.3;}.cls-9{fill:#455a64;}.cls-10{fill:#b78876;}.cls-11{fill:#aa6550;}.cls-12{opacity:0.2;}.cls-13,.cls-17{opacity:0.4;}.cls-14{fill:#eb996e;}.cls-15{fill:#ffbe9d;}.cls-16{fill:#f5f5f5;}.cls-17{isolation:isolate;}</style></defs><g id="Layer_2" data-name="Layer 2"><g id="Layer_1-2" data-name="Layer 1"><g id="freepik--background-complete--inject-6"><rect class="cls-1" x="147.34" y="54.1" width="27.35" height="58.55"/><rect class="cls-1" x="175.82" y="116.74" width="33.61" height="56.57"/><polygon class="cls-1" points="213.53 53.09 245.44 53.09 245.44 1.15 246.58 1.15 246.58 53.09 276.11 53.09 276.11 0 213.53 0 213.53 53.09"/><rect class="cls-1" x="147.34" y="116.74" width="27.35" height="56.57"/><rect class="cls-1" x="246.58" y="116.74" width="29.54" height="56.57"/><rect class="cls-1" x="175.82" y="54.1" width="33.61" height="58.55"/><rect class="cls-1" x="246.58" y="54.1" width="29.54" height="58.55"/><rect class="cls-1" x="147.34" y="174.33" width="27.35" height="50.98"/><polygon class="cls-1" points="174.69 53.09 174.69 1.15 175.82 1.15 175.82 53.09 209.44 53.09 209.44 0 147.34 0 147.34 53.09 174.69 53.09"/><rect class="cls-1" x="175.82" y="174.33" width="33.61" height="50.98"/><rect class="cls-1" x="246.58" y="174.33" width="29.54" height="50.98"/><rect class="cls-1" x="213.53" y="54.1" width="31.92" height="58.55"/><rect class="cls-1" x="213.53" y="174.33" width="31.92" height="50.98"/><rect class="cls-1" x="213.53" y="116.74" width="31.92" height="56.57"/><rect class="cls-1" x="490.81" y="54.1" width="27.35" height="58.55"/><rect class="cls-1" x="519.3" y="116.74" width="33.61" height="56.57"/><polygon class="cls-1" points="557 53.09 588.92 53.09 588.92 1.15 590.05 1.15 590.05 53.09 619.59 53.09 619.59 0 557 0 557 53.09"/><rect class="cls-1" x="490.81" y="116.74" width="27.35" height="56.57"/><rect class="cls-1" x="590.05" y="116.74" width="29.54" height="56.57"/><rect class="cls-1" x="519.3" y="54.1" width="33.61" height="58.55"/><rect class="cls-1" x="590.05" y="54.1" width="29.54" height="58.55"/><rect class="cls-1" x="490.81" y="174.33" width="27.35" height="50.98"/><polygon class="cls-1" points="518.16 53.09 518.16 1.15 519.3 1.15 519.3 53.09 552.91 53.09 552.91 0 490.81 0 490.81 53.09 518.16 53.09"/><rect class="cls-1" x="519.3" y="174.33" width="33.61" height="50.98"/><rect class="cls-1" x="590.05" y="174.33" width="29.54" height="50.98"/><rect class="cls-1" x="557" y="54.1" width="31.92" height="58.55"/><rect class="cls-1" x="557" y="174.33" width="31.92" height="50.98"/><rect class="cls-1" x="557" y="116.74" width="31.92" height="56.57"/><rect class="cls-2" x="91.21" y="57.12" width="34.53" height="52.51"/><rect class="cls-3" x="92.76" y="58.94" width="31.57" height="48.83"/><rect class="cls-2" x="104.14" y="75.4" width="8.69" height="15.93"/><rect class="cls-2" x="647.16" y="119.51" width="44.19" height="29.06"/><rect class="cls-3" x="648.7" y="120.69" width="41.1" height="26.57"/><rect class="cls-2" x="662.54" y="130.38" width="13.41" height="7.31"/><rect class="cls-2" x="645.76" y="21.72" width="47.38" height="72.06"/><rect class="cls-3" x="647.88" y="24.23" width="43.32" height="67.01"/><rect class="cls-2" x="663.49" y="46.8" width="11.92" height="21.86"/></g><g id="freepik--character-4--inject-6"><path class="cls-4" d="M624.27,387.2,620.59,382l14.15-9.91,5.86,7.95-.81.7c-3.63,3.07-18.69,15.34-21.79,16.5C614.53,398.58,624.27,387.2,624.27,387.2Z"/><g class="cls-5"><path class="cls-6" d="M635.53,383.74a5.87,5.87,0,0,1-.57-4.21,5.12,5.12,0,0,1,2.68-3.45l2.78,3.82Z"/></g><g class="cls-5"><path class="cls-6" d="M619.67,393s-3.22,4.24-2.21,4.51,16.68-11.57,23.14-17.39l-.25-.28-18.16,14S620.53,392.39,619.67,393Z"/></g><path class="cls-7" d="M640.53,379.63a2.25,2.25,0,0,1-.21.2l-.65.56-2.42,2c-2,1.66-4.91,3.93-8.13,6.36s-6.17,4.58-8.33,6.1l-2.57,1.79-.71.47a1.28,1.28,0,0,1-.25.15,1.3,1.3,0,0,1,.23-.18l.68-.51,2.53-1.84c2.14-1.55,5.09-3.71,8.3-6.14s6.09-4.68,8.16-6.32l2.46-1.94.67-.52Z"/><path class="cls-7" d="M622.35,394a6.4,6.4,0,0,0-1.35-.82,6.24,6.24,0,0,0-1.55-.29,2.29,2.29,0,0,1,1.63.1A2.25,2.25,0,0,1,622.35,394Z"/><path class="cls-7" d="M624.88,388.89c0,.06-.39,0-.82-.19s-.77-.32-.75-.38a1.8,1.8,0,0,1,.82.19A5.18,5.18,0,0,1,624.88,388.89Z"/><path class="cls-7" d="M625.53,387.49a1.5,1.5,0,0,1-.73,0c-.39,0-.71-.1-.7-.16s.33-.08.72-.05S625.53,387.43,625.53,387.49Z"/><path class="cls-7" d="M625.3,385.69a4.66,4.66,0,0,1-.65.63,2.11,2.11,0,0,1-.77.47,3.62,3.62,0,0,1,.65-.63C624.93,385.86,625.26,385.64,625.3,385.69Z"/><path class="cls-7" d="M624.86,384.61a2.41,2.41,0,0,1-.62.83,1.78,1.78,0,0,1-.91.52,8.46,8.46,0,0,1,.77-.67A7,7,0,0,1,624.86,384.61Z"/><path class="cls-7" d="M623.53,388.08a3.38,3.38,0,0,1-.89.66,5.42,5.42,0,0,1-1.09.51,3.46,3.46,0,0,1-.7.19.62.62,0,0,1-.42-.1.43.43,0,0,1-.13-.45,2,2,0,0,1,2.35-1.05,2,2,0,0,1,.72.36c.15.12.21.21.2.22a2.81,2.81,0,0,0-1-.44,2.09,2.09,0,0,0-1.11.09,1.78,1.78,0,0,0-1,.87c-.06.2.11.32.34.3a3.66,3.66,0,0,0,.65-.17,7.25,7.25,0,0,0,1.08-.45C623.17,388.31,623.53,388.05,623.53,388.08Z"/><path class="cls-7" d="M623.33,388.3a1.22,1.22,0,0,1-.55-.53,1.63,1.63,0,0,1-.24-.81,1.1,1.1,0,0,1,.4-1,.43.43,0,0,1,.57.18h0a1.08,1.08,0,0,1,.15.5,3.93,3.93,0,0,1,0,.84,1.58,1.58,0,0,1-.24.73,4.8,4.8,0,0,1,.09-.75,3.57,3.57,0,0,0,0-.8c0-.27-.18-.66-.44-.53a1,1,0,0,0-.3.8,1.63,1.63,0,0,0,.18.75A3.87,3.87,0,0,0,623.33,388.3Z"/><path class="cls-7" d="M637.53,376.16a7.26,7.26,0,0,0-1,.8,5.64,5.64,0,0,0-1.53,2.57,5.46,5.46,0,0,0,.06,3c.23.73.5,1.14.47,1.16a1.46,1.46,0,0,1-.21-.28,4.23,4.23,0,0,1-.4-.83,5.15,5.15,0,0,1-.12-3.06,5.36,5.36,0,0,1,1.64-2.62,3.49,3.49,0,0,1,.77-.55A1.29,1.29,0,0,1,637.53,376.16Z"/><path class="cls-7" d="M632.83,383.73a10.05,10.05,0,0,1-1.86,1.71,9.52,9.52,0,0,1-2.13,1.36c0-.05.91-.67,2-1.52S632.79,383.69,632.83,383.73Z"/><path class="cls-7" d="M635.53,381.7c.06,0,.07.24.13.51s.15.48.1.52-.23-.16-.3-.48S635.46,381.69,635.53,381.7Z"/><path class="cls-7" d="M635.59,379.69c.06,0,.08.22,0,.46s-.11.45-.16.44-.08-.21,0-.46S635.53,379.69,635.59,379.69Z"/><path class="cls-7" d="M636.62,378a4.59,4.59,0,0,1-.31.41c-.15.22-.22.44-.27.44s-.09-.28.1-.55S636.6,378,636.62,378Z"/><path class="cls-7" d="M637.45,377s0,.16-.06.29-.19.21-.24.18,0-.16.06-.28S637.4,377,637.45,377Z"/><g class="cls-8"><polygon points="637.1 375.32 622.79 385.19 622.38 384.63 636.28 374.18 637.1 375.32"/></g><polygon class="cls-7" points="603.52 311.32 638.45 373.5 619.78 386.16 588.92 331.37 594.12 311.32 603.52 311.32"/><path class="cls-9" d="M691.39,301.36l.19-48.09c0-4,0-8.18-2.09-11.58s-5.83-5.42-9.7-6.21-7.88-.5-11.82-.16l-20.44,64.57c-6.42,1.88-12.37,4.65-16.85,9.28a14.18,14.18,0,0,0-4.18,7.47,7.74,7.74,0,0,0,3.06,7.61,6,6,0,0,0,1.12.6c-.8,6.13-12.47,87.34-12.47,87.34h4l10.36-58.4L654.1,344l23.43,13.15,9.4,55.29h4s-11.63-86-11.78-87.79h0a20.58,20.58,0,0,0,4.09-1.61C690.53,319.22,691.53,311.21,691.39,301.36ZM633,351.75l3.16-17.86,16.09,9Zm3.48-19.65,1.12-6.29,27.28.15c2.43,0,4.91,0,7.36-.15l1.26,7.39L654.22,342Zm19.7,11,17.64-8,3.35,19.72Z"/><path class="cls-10" d="M662.24,230.58h0c-5,0-9.06-3.23-9.13-18.27,0-3,.09-5.64.09-5.64s-7.14-.65-7.67-7.58-.13-23-.13-23h0a24.75,24.75,0,0,1,24.72,1.63l1.1.73-.34,34C670.84,217.27,667.11,230.58,662.24,230.58Z"/><path class="cls-11" d="M653.18,206.57a16.63,16.63,0,0,0,9.06-3.13s-1.87,5.12-9,4.93Z"/><path class="cls-7" d="M647.1,187.27a1,1,0,0,0,.95,1,.94.94,0,0,0,1-.88h0a1,1,0,0,0-1-1A.94.94,0,0,0,647.1,187.27Z"/><path class="cls-7" d="M646.88,186.18c.12.12.87-.42,1.94-.42s1.85.53,2,.4-.07-.29-.41-.53a2.71,2.71,0,0,0-1.58-.47,2.65,2.65,0,0,0-1.54.48C646.93,185.89,646.82,186.12,646.88,186.18Z"/><path class="cls-7" d="M657.53,187.51a1,1,0,0,0,1,1,.93.93,0,0,0,1-.86h0a1,1,0,0,0-1-1,.93.93,0,0,0-1,.86Z"/><path class="cls-7" d="M657.37,186.37c.12.13.87-.42,1.94-.41s1.85.52,2,.39-.06-.28-.41-.52a2.67,2.67,0,0,0-1.57-.48,2.59,2.59,0,0,0-1.54.49C657.42,186.09,657.31,186.32,657.37,186.37Z"/><path class="cls-7" d="M653.53,194.12a7.38,7.38,0,0,0-1.74-.3c-.27,0-.53-.08-.57-.27a1.29,1.29,0,0,1,.18-.79l.8-2a33.35,33.35,0,0,0,1.81-5.32,35.87,35.87,0,0,0-2.24,5.17c-.27.71-.52,1.39-.77,2a1.53,1.53,0,0,0-.14,1,.68.68,0,0,0,.45.39,1.76,1.76,0,0,0,.46.06A6.91,6.91,0,0,0,653.53,194.12Z"/><path class="cls-7" d="M656.64,194.89c-.18,0-.18,1.12-1.17,1.93s-2.23.68-2.23.84.27.22.79.23a2.89,2.89,0,0,0,1.87-.64,2.46,2.46,0,0,0,.9-1.61C656.84,195.12,656.71,194.89,656.64,194.89Z"/><path class="cls-7" d="M657.09,182.28c.11.28,1.17.14,2.42.29s2.27.48,2.43.23-.1-.39-.51-.66a4.29,4.29,0,0,0-3.69-.4C657.28,181.89,657.05,182.14,657.09,182.28Z"/><path class="cls-7" d="M647.27,183.15c.19.24.93,0,1.81,0s1.63.16,1.8-.09,0-.36-.37-.58a2.53,2.53,0,0,0-1.46-.39,2.42,2.42,0,0,0-1.44.48C647.29,182.79,647.19,183,647.27,183.15Z"/><path class="cls-7" d="M643.8,177c3.07,4.24,10,3,14.38.2a7.47,7.47,0,0,0,8.11,2.51c0,1.75-.37,3.48-.44,5.22a6.7,6.7,0,0,0,1.42,4.9c1.19,1.28,3.46,1.64,4.66.37a4.38,4.38,0,0,0,.76-3.64,11.62,11.62,0,0,1-.31-3.81c.34-1.86,2.38-.52,2.45-4.65.08-5.46-4.66-5.33-4.66-5.33a9.45,9.45,0,0,0-1.83-3.31,5.7,5.7,0,0,0-2-1.68,2,2,0,0,0-2.38.43,13.16,13.16,0,0,0-6-2.94c-2.22-.31-4.76.66-5.61,2.73-2.13-.8-5.55-.74-7.18.86s-3.5,6-1.46,8.14"/><path class="cls-10" d="M669.4,186.12c.13,0,4.47-.61,4.06,4.42s-5.45,3-5.45,2.81S669.4,186.12,669.4,186.12Z"/><path class="cls-11" d="M669.72,191.71a2.14,2.14,0,0,0,.23.15,1,1,0,0,0,.67.07,2.18,2.18,0,0,0,1.18-1.87,2.75,2.75,0,0,0-.15-1.27,1,1,0,0,0-.61-.72.45.45,0,0,0-.55.19,1,1,0,0,0-.08.25s-.11-.09,0-.3a.57.57,0,0,1,.23-.3.73.73,0,0,1,.5-.09,1.26,1.26,0,0,1,.87.86,2.88,2.88,0,0,1,.2,1.42,2.28,2.28,0,0,1-1.48,2.07,1,1,0,0,1-.81-.2C669.72,191.89,669.71,191.72,669.72,191.71Z"/><path class="cls-4" d="M554.92,404.58l1.77-5.75,16,3.48-1.92,9.45-1-.13c-4.6-.63-23.35-3.49-26.22-5C540.31,405,554.92,404.58,554.92,404.58Z"/><g class="cls-5"><path class="cls-6" d="M564.81,410.49a5.77,5.77,0,0,1,2.68-3.17,5,5,0,0,1,4.25-.32l-.94,4.52Z"/></g><g class="cls-5"><path class="cls-6" d="M547.74,405s-5.18.45-4.72,1.36,19.3,4.51,27.75,5.38v-.37l-22-4S548.69,405.25,547.74,405Z"/></g><path class="cls-7" d="M571.07,411.43h-.29l-.82-.11-3-.45c-2.55-.39-6.07-1-9.94-1.71s-7.36-1.48-9.87-2.05l-3-.69-.81-.2-.27-.09h.28l.82.16,3,.63c2.52.54,6,1.26,9.88,2s7.37,1.35,9.92,1.78l3,.5.82.15A.9.9,0,0,1,571.07,411.43Z"/><path class="cls-7" d="M548.76,407.64a7.77,7.77,0,0,0-.3-1.51,7.37,7.37,0,0,0-.8-1.32,2.18,2.18,0,0,1,1,1.25A2.27,2.27,0,0,1,548.76,407.64Z"/><path class="cls-7" d="M554.09,406.15a3.18,3.18,0,0,1-.62-1.52,3.77,3.77,0,0,1,.4.72A1.88,1.88,0,0,1,554.09,406.15Z"/><path class="cls-7" d="M555.53,405.71a2.59,2.59,0,0,1-.5-.49c-.23-.3-.4-.58-.35-.62s.27.19.51.5S555.6,405.67,555.53,405.71Z"/><path class="cls-7" d="M556.69,404.34c0,.06-.4,0-.88,0A1.5,1.5,0,0,1,555,404a1.88,1.88,0,0,1,.88.06A2.26,2.26,0,0,1,556.69,404.34Z"/><path class="cls-7" d="M557.19,403.32a1.72,1.72,0,0,1-1,.09,1.57,1.57,0,0,1-1-.32Z"/><path class="cls-7" d="M553.8,404.63a3.22,3.22,0,0,1-1.06-.21,6.14,6.14,0,0,1-1.09-.46,3.3,3.3,0,0,1-.59-.38.62.62,0,0,1-.2-.38.39.39,0,0,1,.24-.38,2,2,0,0,1,2.3,1,2.06,2.06,0,0,1,.21.76v.29a2.91,2.91,0,0,0-.31-1,2,2,0,0,0-.8-.75,1.73,1.73,0,0,0-1.28-.16c-.19.09-.16.3,0,.45a3.17,3.17,0,0,0,.54.36,9.25,9.25,0,0,0,1,.49C553.4,404.52,553.8,404.6,553.8,404.63Z"/><path class="cls-7" d="M553.53,404.63a1,1,0,0,1,0-.75,1.59,1.59,0,0,1,.43-.7,1.06,1.06,0,0,1,1-.36.42.42,0,0,1,.24.54,1.08,1.08,0,0,1-.27.43,3.16,3.16,0,0,1-.62.53,1.49,1.49,0,0,1-.69.31s.25-.15.61-.42a4.07,4.07,0,0,0,.56-.54c.19-.19.36-.57.1-.67a1,1,0,0,0-.78.31,1.58,1.58,0,0,0-.43.62A4.15,4.15,0,0,0,553.53,404.63Z"/><path class="cls-7" d="M571.58,406.94a7.21,7.21,0,0,0-1.23-.19,5.43,5.43,0,0,0-2.86.57,5.32,5.32,0,0,0-2.1,2c-.39.65-.5,1.11-.54,1.1a1.91,1.91,0,0,1,.06-.33,4.93,4.93,0,0,1,2.48-2.93,5.28,5.28,0,0,1,3-.53,4.77,4.77,0,0,1,.91.2A1.36,1.36,0,0,1,571.58,406.94Z"/><path class="cls-7" d="M563,408.51a9.6,9.6,0,0,1-2.45-.22,9.76,9.76,0,0,1-2.38-.65c0-.06,1.09.21,2.42.45S563,408.46,563,408.51Z"/><path class="cls-7" d="M566.27,409.13s-.13.2-.29.42-.25.43-.31.41,0-.27.15-.52S566.24,409.08,566.27,409.13Z"/><path class="cls-7" d="M567.77,407.89a1,1,0,0,1-.31.33c-.2.13-.39.21-.42.17s.1-.19.31-.33S567.74,407.83,567.77,407.89Z"/><path class="cls-7" d="M569.64,407.53c0,.05-.24,0-.49,0s-.46.13-.5.09.15-.24.47-.29S569.67,407.48,569.64,407.53Z"/><path class="cls-7" d="M571,407.44c0,.06-.1.12-.25.15s-.27,0-.28,0,.1-.12.24-.15S570.94,407.39,571,407.44Z"/><path class="cls-11" d="M598.39,257.06a15.75,15.75,0,0,0-3.29-3.13c-.46-.16-8.71-3.6-8.87-3.22s-1.14,2.27.54,3.16l1.3.44-4.74.38s-5.28,3.9-5.2,4.74.76,1.38,1.22,1-1.22,2.68-1.22,2.68,0,1.3.69,1.07a6.61,6.61,0,0,0,1.75-1.45s-1,1.6-.68,1.91,1.83.38,2,0,.39-1.07.39-1.07l.91.08v1.24l14,.43Z"/><path class="cls-7" d="M668.2,290.89S673,308,662.13,311.45s-67.48,5.23-67.48,5.23l-21.42,88.48-18-4.17,15.9-93.1a15.75,15.75,0,0,1,12.76-12.79c16.78-3,47.19-8.51,47.6-9.13a42.47,42.47,0,0,0,1.91-5.27Z"/><path class="cls-9" d="M629.53,315.08a2.46,2.46,0,0,1-.66.06l-1.92.1-7.23.3-25.34.88.23-.18c-1.68,6.87-3.47,14.48-5.34,22.49-3.64,15.69-6.88,29.9-9.35,40.15-1.23,5.13-2.26,9.28-3,12.14-.36,1.4-.65,2.5-.85,3.29l-.24.85c-.05.19-.09.29-.1.28a2.2,2.2,0,0,1,0-.29,7.54,7.54,0,0,1,.18-.87c.19-.79.44-1.9.76-3.31.67-2.91,1.63-7.06,2.82-12.17,2.36-10.31,5.61-24.51,9.21-40.18,1.86-8,3.67-15.63,5.38-22.49V316h.18l25.34-.69,7.24-.16h1.92A5,5,0,0,1,629.53,315.08Z"/><path class="cls-9" d="M623.33,287.89a.68.68,0,0,1-.24.08l-.72.17c-.63.15-1.56.36-2.77.61-2.41.5-5.91,1.17-10.24,1.95s-9.5,1.67-15.21,2.77c-2.85.55-5.84,1.22-9,1.78s-6.34,1.41-8.9,3.53a11,11,0,0,0-2.9,3.85,24.77,24.77,0,0,0-1.55,4.51,87,87,0,0,0-1.76,8.93c-.9,5.74-1.71,10.92-2.39,15.28s-1.21,7.82-1.59,10.3l-.45,2.8a3.75,3.75,0,0,1-.13.72,1.14,1.14,0,0,1-.06.25.53.53,0,0,1,0-.25l.07-.74c.09-.68.21-1.62.36-2.81.34-2.48.83-6,1.43-10.33s1.37-9.54,2.27-15.29a88.77,88.77,0,0,1,1.74-9,25.86,25.86,0,0,1,1.58-4.61,11.25,11.25,0,0,1,3-4c2.68-2.22,6-3,9.13-3.63s6.09-1.21,9-1.75c5.72-1.08,10.9-1.92,15.24-2.66s7.84-1.35,10.26-1.79l2.79-.51.73-.12A.83.83,0,0,1,623.33,287.89Z"/><polygon class="cls-4" points="652.62 218.45 648.35 223.51 631.26 253.41 597.93 256.71 597.2 266.35 635.59 269.98 657.02 231.2 652.62 218.45"/><g class="cls-12"><polygon points="652.62 218.45 648.35 223.51 631.26 253.41 597.93 256.71 597.2 266.35 635.59 269.98 657.02 231.2 652.62 218.45"/></g><path class="cls-4" d="M649.24,233l3.29-12.48.07-4.07,18.55-8.42,3.56,4.43-.43.23c1.46,1.53,12.26,13.2,11.62,21.81-.58,7.75-16.92,56.62-16.92,56.62l-37.22-10.88Z"/><path class="cls-7" d="M652.62,216.49s.13.84.29,2.29a53.8,53.8,0,0,0,.8,6l.06.26.23-.14,6.63-3.82c3.83-2.22,7.28-4.25,9.76-5.74l2.94-1.78a7.78,7.78,0,0,0,1-.7,6.94,6.94,0,0,0-1.13.55l-3,1.67c-2.53,1.42-6,3.4-9.83,5.62l-6.61,3.87.29.12c-.55-2.41-.69-4.51-.95-5.95-.12-.73-.24-1.3-.33-1.68A2.65,2.65,0,0,0,652.62,216.49Z"/><path class="cls-4" d="M682.53,243.68c0,.48-33.62,33-33.62,33l-45.38-8.92,1.46-9.69,31,.84a9.17,9.17,0,0,0,8.15-3.69c6.66-8.64,21.08-27.37,21.45-27.87S682.53,243.68,682.53,243.68Z"/><path class="cls-7" d="M605,258.07a2.77,2.77,0,0,1-.11.61l-.3,1.84c-.26,1.65-.64,4.08-1.14,7.23v.14h.1l36.25,7,3,.57a13.71,13.71,0,0,0,3.13.28,12.63,12.63,0,0,0,6.18-1.85,12.31,12.31,0,0,0,2.6-2.12c.77-.83,1.48-1.68,2.23-2.53l4.54-5.22,19.41-22.33h0a1.37,1.37,0,0,1,.13-.35,14.87,14.87,0,0,0,1.1-5.23,9.68,9.68,0,0,0-1.3-5.12,10.8,10.8,0,0,0-3.74-3.62,11.38,11.38,0,0,0-4.86-1.61,9.2,9.2,0,0,0-5,.88,13.06,13.06,0,0,0-3.86,3.07,38.44,38.44,0,0,0-2.92,3.81l-2.72,3.8c-3.61,5-7.19,9.59-10.65,13.83l-2.57,3a28.08,28.08,0,0,1-2.59,2.86,6,6,0,0,1-3.31,1.36,26.31,26.31,0,0,1-3.55.09L613,258.14l-6-.07h-1.52l1.57.05,6,.15,22,.5a25.29,25.29,0,0,0,3.59-.08,6.31,6.31,0,0,0,3.49-1.42,25.69,25.69,0,0,0,2.63-2.89c.85-1,1.71-2,2.58-3.11,3.48-4.23,7.07-8.85,10.7-13.83q1.35-1.87,2.72-3.79a40.59,40.59,0,0,1,2.9-3.77,12.51,12.51,0,0,1,3.74-3,8.74,8.74,0,0,1,4.72-.83,11.06,11.06,0,0,1,8.26,5,9.18,9.18,0,0,1,1.24,4.88,14.33,14.33,0,0,1-1.06,5.08c0,.12-.1.23-.14.34v-.06L661,263.63l-4.53,5.23c-.74.85-1.47,1.72-2.21,2.53a12.43,12.43,0,0,1-2.52,2.05,12.27,12.27,0,0,1-6,1.81,13,13,0,0,1-3-.27l-3-.56-36.18-6.75.07.11c.45-3.14.8-5.55,1-7.2.11-.81.2-1.43.26-1.87A4.73,4.73,0,0,1,605,258.07Z"/><path class="cls-2" d="M670.42,253.66a15.7,15.7,0,0,1-2.28-1.78c-1.35-1.16-3.17-2.82-5.11-4.74s-3.6-3.73-4.77-5.08a15.13,15.13,0,0,1-1.8-2.26,16.31,16.31,0,0,1,2.07,2c1.23,1.28,2.94,3,4.87,5s3.7,3.61,5,4.84A17.52,17.52,0,0,1,670.42,253.66Z"/><path class="cls-2" d="M672.81,250.11a14.56,14.56,0,0,1-2.28-1.78c-1.36-1.16-3.18-2.82-5.11-4.74s-3.61-3.73-4.78-5.08a14.46,14.46,0,0,1-1.79-2.26,17.7,17.7,0,0,1,2.06,2c1.24,1.28,3,3.05,4.87,5s3.71,3.61,5,4.84A17.6,17.6,0,0,1,672.81,250.11Z"/><path class="cls-2" d="M646.71,239.44a20.28,20.28,0,0,1-5.42-3.68,20.28,20.28,0,0,1,5.42,3.68Z"/><path class="cls-2" d="M647.89,235.89a6.87,6.87,0,0,1-2.34-1.32,7.24,7.24,0,0,1-2-1.74,6.92,6.92,0,0,1,2.35,1.32A9.07,9.07,0,0,1,647.89,235.89Z"/><path class="cls-9" d="M637.21,322.55c-6.57-.44-3.48-9.87-3.32-20.38.1-6.58,4.48-13,9.25-17.59a22.53,22.53,0,0,1,8.39-4.69A52.06,52.06,0,0,1,677,278.26S689.38,326,637.21,322.55Z"/><path class="cls-10" d="M585.53,258.08l8.1-2.22,6.73,3.37h3.82l.62.25-1.09,7.26-1,.13a9.35,9.35,0,0,1-3.22,1.23c-2.14.46-5.28-.92-5.28-.92l-4.28-2.37-3.06-.87-2.29,1.33a10.09,10.09,0,0,0-.23,1.22c0,.31-.84.69-1.3.69s-.61-1.07-.61-1.07l.53-2.29-1.07,1h-2.67v-1.68Z"/><path class="cls-2" d="M571.23,268.83c-.72-1.05-10.64-43.21-10.64-43.21h3.61L574.68,266h39v3Z"/></g><g id="freepik--desk-2--inject-6"><path class="cls-4" d="M372.77,231.76a58.62,58.62,0,0,1,6.46-12.26,7.79,7.79,0,0,1,3.34-3.14c2.43-.93,5.06.57,7.23,2l5,3.31a1.33,1.33,0,0,1,.67.78c.09.62-.69,1-1.31,1.05a9.06,9.06,0,0,1-6.11-1.51c-1.35-.93-2.67-2.31-4.3-2.14-2,.21-2.94,2.57-3.73,4.46a20,20,0,0,1-8.56,9.64"/><path class="cls-4" d="M372.76,232.59c.38-10.07.78-20.22,3.2-30s7-19.3,14.58-25.94c-1,8.48-4.08,16.57-7.13,24.54l-12.35,32.24"/><path class="cls-4" d="M371,236.25a111.42,111.42,0,0,0-7.65-26.66,6.49,6.49,0,0,0-2.32-3.27c-1.72-1-3.93-.36-5.77.46a47.07,47.07,0,0,0-12,7.75,1.78,1.78,0,0,0-.64.91,1.19,1.19,0,0,0,.94,1.22,3.5,3.5,0,0,0,1.67-.1l10.06-2.33a5.17,5.17,0,0,1,3.09-.08,5.24,5.24,0,0,1,2.41,2.83q4.93,10,9.89,19.93"/><g class="cls-13"><path d="M372.77,231.76a58.62,58.62,0,0,1,6.46-12.26,7.79,7.79,0,0,1,3.34-3.14c2.43-.93,5.06.57,7.23,2l5,3.31a1.33,1.33,0,0,1,.67.78c.09.62-.69,1-1.31,1.05a9.06,9.06,0,0,1-6.11-1.51c-1.35-.93-2.67-2.31-4.3-2.14-2,.21-2.94,2.57-3.73,4.46a20,20,0,0,1-8.56,9.64"/></g><g class="cls-13"><path d="M372.76,232.59c.38-10.07.78-20.22,3.2-30s7-19.3,14.58-25.94c-1,8.48-4.08,16.57-7.13,24.54l-12.35,32.24"/></g><g class="cls-8"><path d="M371,236.25a111.42,111.42,0,0,0-7.65-26.66,6.49,6.49,0,0,0-2.32-3.27c-1.72-1-3.93-.36-5.77.46a47.07,47.07,0,0,0-12,7.75,1.78,1.78,0,0,0-.64.91,1.19,1.19,0,0,0,.94,1.22,3.5,3.5,0,0,0,1.67-.1l10.06-2.33a5.17,5.17,0,0,1,3.09-.08,5.24,5.24,0,0,1,2.41,2.83q4.93,10,9.89,19.93"/></g><path class="cls-4" d="M386.3,160.33a60,60,0,0,0-14,35.46c-.94,21.44-2.2,36.89-2.2,36.89h2.36s4.73-43.19,7.88-50.76S388.35,163.64,386.3,160.33Z"/><path class="cls-7" d="M386.3,160.33a4.19,4.19,0,0,1-.29.69c-.23.47-.53,1.11-.91,1.93-.78,1.68-1.87,4.13-3.07,7.22s-2.52,6.81-3.78,11A113.36,113.36,0,0,0,375,195c-.42,2.49-.61,4.94-.8,7.32s-.31,4.68-.44,6.87c-.26,4.38-.53,8.32-.89,11.62s-.79,6-1.16,7.78c-.17.91-.35,1.61-.46,2.09a3.49,3.49,0,0,1-.2.72,3.71,3.71,0,0,1,.11-.74c.11-.48.24-1.18.38-2.1.32-1.82.71-4.48,1-7.78s.56-7.24.79-11.62c.12-2.19.25-4.49.42-6.87s.37-4.86.8-7.36a106.91,106.91,0,0,1,3.34-13.9c1.28-4.2,2.63-7.92,3.88-11s2.37-5.52,3.2-7.18c.41-.83.76-1.46,1-1.9A5.14,5.14,0,0,1,386.3,160.33Z"/><path class="cls-4" d="M395.09,180.4s-16,15.24-17.76,29.62-2.73,22.08-2.73,22.08h1.58s3.78-20.49,8.67-26.95S396.19,182.13,395.09,180.4Z"/><path class="cls-7" d="M394.9,181.39a3.12,3.12,0,0,1-.23.49l-.75,1.34c-.68,1.22-1.63,2.88-2.79,4.92-2.33,4.16-5.57,9.92-8.5,16.58a84.29,84.29,0,0,0-5.71,17.68c-.46,2.34-.72,4.25-.86,5.57-.09.67-.12,1.18-.16,1.53a1.9,1.9,0,0,1-.09.53,4.69,4.69,0,0,1,0-.53,12.07,12.07,0,0,1,.08-1.54,53.3,53.3,0,0,1,.72-5.62,79.39,79.39,0,0,1,5.61-17.8A165.56,165.56,0,0,1,390.86,188c1.21-2.06,2.21-3.71,2.91-4.85l.82-1.31A4.37,4.37,0,0,1,394.9,181.39Z"/><path class="cls-4" d="M364.24,183.08s-2.37,30.11,3.15,48.07h1.89S370.53,192.22,364.24,183.08Z"/><path class="cls-7" d="M365.53,188.77a1.56,1.56,0,0,1,.08.43,11.92,11.92,0,0,0,.13,1.22c.09,1.12.23,2.64.39,4.49.31,3.79.71,9,1.12,14.83s.77,11,1,14.85c.11,1.85.19,3.37.25,4.5v1.23a.22.22,0,1,1-.08,0c0-.33-.08-.73-.13-1.22-.1-1.12-.23-2.64-.39-4.49-.31-3.79-.71-9-1.13-14.84s-.76-11-1-14.84c-.11-1.85-.19-3.37-.26-4.5V189.2A2.07,2.07,0,0,1,365.53,188.77Z"/><path class="cls-9" d="M360.53,229.41s5.79,4.16,5.49,6.09S351.77,247.82,352.66,256s7.57,13.81,19,13.36,19.15-7.57,18.11-14.85-12.38-18.83-12.51-19.39c-.38-1.6,5.09-5.7,5.09-5.7Z"/><path class="cls-3" d="M381.3,240c0,.12-4.22.22-9.42.22s-9.42-.1-9.42-.22,4.22-.22,9.42-.22S381.3,239.89,381.3,240Z"/><path class="cls-3" d="M382.62,241.94c0,.12-5,.22-11.09.22s-11.1-.1-11.1-.22,5-.22,11.1-.22S382.62,241.82,382.62,241.94Z"/><path class="cls-3" d="M384.62,244.13c0,.12-5.87.22-13.11.22s-13.11-.1-13.11-.22,5.87-.24,13.13-.24S384.62,244,384.62,244.13Z"/><path class="cls-3" d="M386.39,247c0,.12-6.76.22-15.11.22s-15.11-.1-15.11-.22,6.76-.22,15.11-.22S386.39,246.89,386.39,247Z"/><polygon class="cls-7" points="651.6 268.97 347.66 268.97 347.66 275.68 368.49 275.68 368.49 411.87 375.83 411.87 375.83 275.68 579.75 275.68 579.75 411.87 587.1 411.87 587.1 275.68 651.6 275.68 651.6 268.97"/></g><g id="freepik--character-3--inject-6"><path class="cls-7" d="M446.69,193.89a5.67,5.67,0,0,1-.18-1,6,6,0,0,0-1-2.47,3,3,0,0,0-1.4-1.08,2.07,2.07,0,0,0-1.88.3,5.89,5.89,0,0,0-.17,8.33l.17.17a2.1,2.1,0,0,0,1.88.29,3,3,0,0,0,1.4-1.07,6,6,0,0,0,1-2.47,5.67,5.67,0,0,1,.18-1,2.8,2.8,0,0,1,0,1,5.82,5.82,0,0,1-.93,2.65,3.24,3.24,0,0,1-1.56,1.27,2.52,2.52,0,0,1-2.29-.3,6.28,6.28,0,0,1-.43-8.87c.14-.15.28-.29.43-.43a2.49,2.49,0,0,1,2.29-.3,3.33,3.33,0,0,1,1.56,1.26,5.9,5.9,0,0,1,.93,2.66A3.14,3.14,0,0,1,446.69,193.89Z"/><polygon class="cls-14" points="448.14 407.84 447.22 362.17 463.31 363.4 460.8 407.66 448.14 407.84"/><path class="cls-4" d="M461.53,408l0-1.47-14,.33.09,4.87h.86c3.82.13,19.44.37,22-.46C473.29,410.41,461.53,408,461.53,408Z"/><g class="cls-13"><path class="cls-6" d="M452.64,411.54a4.8,4.8,0,0,0-1.83-2.91,4.73,4.73,0,0,0-3.25-.93l.08,3.87Z"/></g><g class="cls-13"><path class="cls-6" d="M467.25,409.4s4.15,1.1,3.65,1.79-16.29,1-23.27.58v-.31l18.42-.25S466.45,409.45,467.25,409.4Z"/></g><path class="cls-7" d="M447.43,411.45a.49.49,0,0,0,.24,0h.68l2.52.05h8.3c3.24,0,6.18-.2,8.3-.32L470,411h0l-2.52.1c-2.12.09-5,.2-8.29.27s-6.18.08-8.3.08h-3.44Z"/><path class="cls-7" d="M466.07,411.42a5.84,5.84,0,0,1,.44-1.21,5.71,5.71,0,0,1,.84-1,2.26,2.26,0,0,0-1.28,2.19Z"/><path class="cls-7" d="M461.94,409.44a2.69,2.69,0,0,0,.43-.54c.2-.33.32-.6.28-.62s-.23.21-.43.54S461.9,409.42,461.94,409.44Z"/><path class="cls-7" d="M460.81,408.89a2.09,2.09,0,0,0,.48-.34c.23-.22.4-.42.37-.46s-.25.12-.48.34A1.49,1.49,0,0,0,460.81,408.89Z"/><path class="cls-7" d="M460.07,407.59a1.64,1.64,0,0,0,.73.07,1.48,1.48,0,0,0,.72-.09,1.6,1.6,0,0,0-.72-.08A1.64,1.64,0,0,0,460.07,407.59Z"/><path class="cls-7" d="M459.81,406.67a1.43,1.43,0,0,0,.81.22,1.49,1.49,0,0,0,.83-.13,7.53,7.53,0,0,1-1.64-.09Z"/><path class="cls-7" d="M462.39,408.23a2.6,2.6,0,0,0,.88,0,5.26,5.26,0,0,0,1-.23,2.08,2.08,0,0,0,.53-.23.44.44,0,0,0,.22-.28.34.34,0,0,0-.15-.36,1.65,1.65,0,0,0-2.28,1.12v.24a3,3,0,0,1,.39-.76,1.51,1.51,0,0,1,.75-.51,1.35,1.35,0,0,1,1.06,0c.15.1.09.26-.06.36a3.22,3.22,0,0,1-.5.23,5.85,5.85,0,0,1-.91.25A8.32,8.32,0,0,0,462.39,408.23Z"/><path class="cls-7" d="M462.62,408.27a1,1,0,0,0,.09-.62,1.68,1.68,0,0,0-.26-.65.89.89,0,0,0-.75-.43.34.34,0,0,0-.27.41,1.16,1.16,0,0,0,.16.4,2.43,2.43,0,0,0,.44.52c.28.27.5.37.51.35s-.18-.15-.43-.43a3.31,3.31,0,0,1-.38-.52c-.13-.19-.22-.52,0-.57s.46.19.6.36a1.52,1.52,0,0,1,.26.58A3,3,0,0,1,462.62,408.27Z"/><path class="cls-7" d="M447.63,407.66h1a4.45,4.45,0,0,1,2.25.87,4.51,4.51,0,0,1,1.44,1.93c.22.59.25,1,.28,1a1.31,1.31,0,0,0,0-.28,3.13,3.13,0,0,0-.16-.75,4.33,4.33,0,0,0-1.45-2,4.23,4.23,0,0,0-2.34-.85,3.22,3.22,0,0,0-.76,0A.79.79,0,0,0,447.63,407.66Z"/><path class="cls-7" d="M454.35,410.16a8.39,8.39,0,0,0,2,.15,8,8,0,0,0,2-.2c0-.05-.91,0-2,0A14.52,14.52,0,0,0,454.35,410.16Z"/><path class="cls-7" d="M451.64,410.21s.08.19.18.4.15.39.2.38.06-.22,0-.45S451.67,410.18,451.64,410.21Z"/><path class="cls-7" d="M450.59,409a.86.86,0,0,0,.21.32c.15.14.29.23.32.2s-.06-.18-.2-.32S450.63,408.89,450.59,409Z"/><path class="cls-7" d="M449.12,408.41s.19,0,.4.11.35.18.39.14-.09-.22-.34-.3S449.1,408.37,449.12,408.41Z"/><path class="cls-7" d="M448.07,408.16s.07.12.18.16a.44.44,0,0,0,.24,0,.31.31,0,0,0-.18-.16C448.19,408.12,448.09,408.12,448.07,408.16Z"/><polygon class="cls-15" points="465.75 407.57 464.66 365.21 480.74 363.4 478.65 407.47 465.75 407.57"/><path class="cls-4" d="M422.85,288.77c15.68.11,31.39.21,47,1.63,6.23.57,13,1.6,17.3,6.12,4.06,4.22,5,10.46,5.75,16.27l6.85,53.1a245,245,0,0,1-65.08-2q.22-19.75.46-39.5l.34-6.19-24.15-1.57Z"/><rect class="cls-7" x="455.99" y="266.34" width="63.82" height="3.1"/><polygon class="cls-7" points="529.7 269.44 541.67 224.58 491.84 224.58 481 269.44 529.7 269.44"/><polygon class="cls-16" points="483.98 266.04 528.5 266.04 538.86 226.65 494.12 226.65 483.98 266.04"/><polygon class="cls-2" points="495.22 234.28 492.46 245.44 521.98 245.44 525.13 234.28 495.22 234.28"/><path class="cls-9" d="M518.9,232.81c0,.12-5.18.22-11.56.22s-11.56-.1-11.56-.22,5.17-.21,11.56-.21S518.9,232.69,518.9,232.81Z"/><path class="cls-7" d="M505.45,236.42a51.81,51.81,0,0,1-9.32,0A50,50,0,0,1,505.45,236.42Z"/><path class="cls-7" d="M512.92,236.24a21.21,21.21,0,0,1-6.06,0A22,22,0,0,1,512.92,236.24Z"/><path class="cls-9" d="M521.36,238.44c0,.12-5.7.22-12.74.22s-12.75-.1-12.75-.22,5.7-.22,12.75-.22S521.36,238.32,521.36,238.44Z"/><path class="cls-4" d="M503.6,240.29a40.72,40.72,0,0,1-8.26,0A39.32,39.32,0,0,1,503.6,240.29Z"/><path class="cls-9" d="M519.08,242.89c0,.12-5.3.22-11.83.22s-11.82-.1-11.82-.22,5.29-.21,11.82-.21S519.08,242.81,519.08,242.89Z"/><path class="cls-9" d="M501.67,248.64a48.23,48.23,0,0,1-9.15,0A48.23,48.23,0,0,1,501.67,248.64Z"/><path class="cls-7" d="M509.53,248.67a11.28,11.28,0,0,1-3.12.19,11.65,11.65,0,0,1-3.12-.24,11.68,11.68,0,0,1,3.12-.19A12.57,12.57,0,0,1,509.53,248.67Z"/><path class="cls-7" d="M513.89,248.46c0,.12-.59.22-1.32.22s-1.32-.1-1.32-.22.59-.21,1.32-.21S513.89,248.34,513.89,248.46Z"/><path class="cls-4" d="M495.6,250.89c0,.11-.65.21-1.45.21s-1.45-.1-1.45-.21.65-.22,1.45-.22A3.08,3.08,0,0,1,495.6,250.89Z"/><path class="cls-7" d="M504.31,250.89a28.86,28.86,0,0,1-6.95,0A27.87,27.87,0,0,1,504.31,250.89Z"/><path class="cls-9" d="M525.06,250.66c0,.12-4.16.22-9.28.22s-9.28-.1-9.28-.22,4.16-.21,9.28-.21S525.06,250.54,525.06,250.66Z"/><path class="cls-7" d="M495.16,253.3c0,.12-.67.22-1.49.22s-1.5-.1-1.5-.22.67-.22,1.5-.22S495.16,253.18,495.16,253.3Z"/><path class="cls-7" d="M499.73,253.21a7.56,7.56,0,0,1-3.6,0A7.82,7.82,0,0,1,499.73,253.21Z"/><path class="cls-9" d="M513.36,253a81.45,81.45,0,0,1-11.69,0A78.65,78.65,0,0,1,513.36,253Z"/><path class="cls-9" d="M506.15,257.17a119.29,119.29,0,0,1-14.15,0A115.18,115.18,0,0,1,506.15,257.17Z"/><path class="cls-4" d="M514.42,257a23.8,23.8,0,0,1-6.42,0A24.64,24.64,0,0,1,514.42,257Z"/><path class="cls-7" d="M526.68,257A65.17,65.17,0,0,1,516,257,67.49,67.49,0,0,1,526.68,257Z"/><path class="cls-7" d="M523.83,232.64c0,.12-.5.21-1.1.21s-1.1-.09-1.1-.21.49-.22,1.1-.22S523.83,232.52,523.83,232.64Z"/><path class="cls-4" d="M501.4,231.14a13.52,13.52,0,0,1-4.83,0A14,14,0,0,1,501.4,231.14Z"/><path class="cls-1" d="M538.12,229.49H493.36l.76-2.84h44.74Z"/><path class="cls-3" d="M496.53,228.09a.5.5,0,1,1-.5-.5A.5.5,0,0,1,496.53,228.09Z"/><path class="cls-3" d="M498.17,228.09a.47.47,0,0,1-.48.48h0a.47.47,0,0,1-.48-.46v0a.47.47,0,0,1,.47-.49h0A.49.49,0,0,1,498.17,228.09Z"/><path class="cls-3" d="M499.86,228.09a.5.5,0,1,1-.5-.5A.5.5,0,0,1,499.86,228.09Z"/><path class="cls-15" d="M445.23,248.34l6.39,19.24c1.73,5.2,6.27,6.09,11.74,6.09h35.55v-8L466.43,261l-7.73-19.77Z"/><path class="cls-15" d="M502.81,264l2.82-1.34s3-5.87,3.74-5.64.9,2-.32,4.66l3.75-1.07s8.12,3.76,7.76,4.26a1.87,1.87,0,0,1-2.45,1,2.27,2.27,0,0,1-.34-.19c-1.77-.9-4.09-2-4.09-2L509.31,265l5.64.72,5.31,4.83a2.62,2.62,0,0,1-3.25-.08l-13.79,3-4.31.25v-8Z"/><path class="cls-14" d="M517,270.46a10.73,10.73,0,0,1-.81-.91,4.21,4.21,0,0,0-1-.78,4,4,0,0,0-1.48-.38,20.73,20.73,0,0,1-4.14-.71,19.61,19.61,0,0,1,4.19.28,3.53,3.53,0,0,1,2.67,1.39A2.51,2.51,0,0,1,517,270.46Z"/><path class="cls-14" d="M514.85,271c-.05,0-.09-.28-.48-.36s-1-.15-1.67-.22a14.09,14.09,0,0,1-2.43-.24,4.71,4.71,0,0,1,2.47-.19,7.3,7.3,0,0,1,1.73.36.69.69,0,0,1,.42.43C514.93,270.94,514.88,271,514.85,271Z"/><path class="cls-15" d="M419.53,181.55l-2,39.09,16.73,1.57.93-9.48s5.9,1.46,7.69-4c1.15-3.48,2.17-30.81,2.17-30.81Z"/><path class="cls-4" d="M446.26,256.46l2.5,10.12,20.26-5.1c-.62-1.94-6-14.19-11.46-27.89a23.53,23.53,0,0,0-18-14.49A101.71,101.71,0,0,0,423,217.47c-9.73.1-22.33,4.19-24.25,13.73-1.47,7.28,1.8,19.17,1.8,34.78l-2.3,32.79,48.33,1.64-4.89-28.78Z"/><g class="cls-12"><path d="M398.72,263.78c6.06,1.24,10.57-1.76,16.75-2.13,3.75-.22,7.91-.62,10.87,1.68,2.35,1.83,3.3,4.9,4,7.8,1.47,6.28,2.48,19.27,3.18,31.4a22.79,22.79,0,0,0,12.62,19.1c1.93,1,7,1,7.06,1.65l-49.55,2Z"/></g><path class="cls-7" d="M444.81,175.4c-2.82-1.55-6.12-1.92-9.35-2a22,22,0,0,0-4.28-.51s-13-1.43-17,10.64h0a22.75,22.75,0,0,0-.92,4,1.7,1.7,0,0,1-.05.5v.09h-.07v.27a17.34,17.34,0,0,1-.72,2.25,13,13,0,0,1-1.6,1.71c-2.23,2-5,3.76-6.08,6.54-.82,2-.66,4.31-.69,6.51s-.32,4.57-1.82,6.17c-1.09,1.16-2.64,1.75-3.92,2.7-3.52,2.64-4.3,7.81-3,12,.42,1.39,1,2.82.73,4.23-.39,1.77-2.13,3.06-2.3,4.86a3.75,3.75,0,0,0,1.95,3.44,7.23,7.23,0,0,0,4,.82,11.54,11.54,0,0,0,1.17-.1,6.54,6.54,0,0,1-2.07,3.07,85.13,85.13,0,0,0,13.34,1.09l2.61-7,3.53,6.89c5.08-.19,10.18-.63,15.24-1.07a15.28,15.28,0,0,1,.39-13.09c1.25-2.41,3.23-4.76,2.9-7.46-.44-3.71-5.14-6.44-4.21-10.06a4.18,4.18,0,0,1,.91-1.68,20,20,0,0,0,5.08-3.12c1.67-1.53,2.09-2.34,2.19-5.56h0a28.12,28.12,0,0,0,1.21-13l-.05-.33s3.66.61,3.88-2.16a2.88,2.88,0,0,0,1.24,0c0-.69.22-2.26.21-3,.24.44.54,2.06.79,2.5.59-.11,1.23-.35,1.82-.45C450.44,181.66,447.93,177.1,444.81,175.4Z"/><path class="cls-7" d="M415.41,195.23a4.87,4.87,0,0,1-.28.46l-.88,1.26a20.57,20.57,0,0,0-2.62,5,10.83,10.83,0,0,0-.56,3.79,8.88,8.88,0,0,0,1.33,4.15,11.11,11.11,0,0,1,1.82,4.7,6.93,6.93,0,0,1-2.34,4.87,42.92,42.92,0,0,0-3.79,3.72,7.8,7.8,0,0,0-1.57,4.48,22,22,0,0,0,.3,4.44,34.43,34.43,0,0,1,.41,3.93,9.06,9.06,0,0,1-1.39,5.5,5.27,5.27,0,0,1-1.07,1.14,1.7,1.7,0,0,1-.46.29,7.67,7.67,0,0,0,1.36-1.54,9,9,0,0,0,1.19-5.38,33.51,33.51,0,0,0-.47-3.87,22.16,22.16,0,0,1-.35-4.53,8.23,8.23,0,0,1,1.64-4.78,45.31,45.31,0,0,1,3.83-3.76,6.44,6.44,0,0,0,2.2-4.49c-.06-1.66-1-3.1-1.73-4.49a12.43,12.43,0,0,1-1-2.16,8.19,8.19,0,0,1-.38-2.2,11,11,0,0,1,.64-3.93,19.21,19.21,0,0,1,2.8-5,14.74,14.74,0,0,1,1-1.22C415.3,195.34,415.4,195.21,415.41,195.23Z"/><path class="cls-4" d="M479.33,408v-1.47l-13.89.34.09,4.87h.85c3.83.13,19.44.37,22-.46C491.14,410.4,479.33,408,479.33,408Z"/><g class="cls-13"><path class="cls-6" d="M470.53,411.53a4.8,4.8,0,0,0-1.83-2.91,4.65,4.65,0,0,0-3.26-.94l.09,3.87Z"/></g><g class="cls-13"><path class="cls-6" d="M485.11,409.38s4.14,1.1,3.64,1.79-16.29,1-23.26.58v-.31l18.42-.25S484.3,409.43,485.11,409.38Z"/></g><path class="cls-7" d="M465.28,411.43h.93l2.51.05H477c3.24,0,6.18-.2,8.3-.32l2.51-.16.69-.05h-.67l-2.51.1c-2.12.09-5.06.2-8.3.27s-6.17.08-8.3.08H465.3Z"/><path class="cls-7" d="M483.92,411.41a6.61,6.61,0,0,1,.45-1.22,6.12,6.12,0,0,1,.83-1,2,2,0,0,0-1,.9A1.91,1.91,0,0,0,483.92,411.41Z"/><path class="cls-7" d="M479.8,409.42a2.47,2.47,0,0,0,.42-.54c.19-.33.32-.6.28-.62s-.23.21-.42.54S479.76,409.4,479.8,409.42Z"/><path class="cls-7" d="M478.67,408.89a2.36,2.36,0,0,0,.48-.34c.24-.22.39-.42.36-.46s-.25.12-.48.34S478.63,408.82,478.67,408.89Z"/><path class="cls-7" d="M477.93,407.57a1.6,1.6,0,0,0,.72.07c.4,0,.73,0,.72-.09s-.32-.08-.72-.07A1.48,1.48,0,0,0,477.93,407.57Z"/><path class="cls-7" d="M477.67,406.65a1.43,1.43,0,0,0,.81.22,1.49,1.49,0,0,0,.83-.13,7.53,7.53,0,0,1-1.64-.09Z"/><path class="cls-7" d="M480.24,408.21a2.66,2.66,0,0,0,.89,0,5.16,5.16,0,0,0,.94-.23,2.14,2.14,0,0,0,.54-.23.49.49,0,0,0,.21-.28.36.36,0,0,0-.14-.36,1.63,1.63,0,0,0-2.27,1.13.49.49,0,0,0,0,.24,2.24,2.24,0,0,1,.39-.77,1.51,1.51,0,0,1,.75-.51,1.35,1.35,0,0,1,1.06.05c.14.1.09.27-.07.36a3.12,3.12,0,0,1-.49.23,7.25,7.25,0,0,1-.91.26A7.63,7.63,0,0,0,480.24,408.21Z"/><path class="cls-7" d="M480.47,408.25a1,1,0,0,0,.09-.62,1.38,1.38,0,0,0-.26-.65.86.86,0,0,0-.75-.43.34.34,0,0,0-.26.4h0a1,1,0,0,0,.16.4,2.38,2.38,0,0,0,.43.52c.29.27.51.37.52.35s-.18-.15-.43-.43a2.83,2.83,0,0,1-.39-.52c-.12-.19-.22-.52,0-.57s.45.19.59.37a1.35,1.35,0,0,1,.26.57A3,3,0,0,1,480.47,408.25Z"/><path class="cls-7" d="M465.53,407.64h1a4.34,4.34,0,0,1,3.69,2.8c.22.59.25,1,.29,1a.66.66,0,0,0,0-.28,3.88,3.88,0,0,0-.17-.75,4.17,4.17,0,0,0-3.79-2.88,3.22,3.22,0,0,0-.76,0A.85.85,0,0,0,465.53,407.64Z"/><path class="cls-7" d="M472.21,410.14a8.39,8.39,0,0,0,2,.15,8,8,0,0,0,2-.2s-.91,0-2,0A14.42,14.42,0,0,0,472.21,410.14Z"/><path class="cls-7" d="M469.53,410.19l.17.4c.09.21.15.39.2.38s.07-.22,0-.45S469.53,410.16,469.53,410.19Z"/><path class="cls-7" d="M468.45,409a.93.93,0,0,0,.2.31c.14.14.3.23.33.2s-.06-.18-.21-.32S468.53,408.89,468.45,409Z"/><path class="cls-7" d="M467,408.4a1,1,0,0,1,.4.1c.2.1.36.18.39.14s-.08-.22-.34-.3S467,408.35,467,408.4Z"/><path class="cls-7" d="M465.93,408.14c0,.05.06.12.18.16a.44.44,0,0,0,.24,0s-.07-.12-.18-.16S465.94,408.1,465.93,408.14Z"/><path class="cls-7" d="M459.83,360.8c-.14,0,.25-7.42.88-16.56s1.26-16.53,1.4-16.52-.25,7.42-.88,16.56S460,360.81,459.83,360.8Z"/><path class="cls-7" d="M467.82,362.68a7.76,7.76,0,0,1-.15-1.36c-.07-1-.16-2.23-.27-3.73-.21-3.15-.52-7.5-.95-12.29s-.9-9.13-1.25-12.27c-.17-1.49-.3-2.73-.41-3.71a7.82,7.82,0,0,1-.09-1.37,6,6,0,0,1,.29,1.34c.15.87.35,2.13.57,3.7.45,3.13,1,7.46,1.41,12.26s.68,9.16.8,12.32c.06,1.58.09,2.86.1,3.74A7,7,0,0,1,467.82,362.68Z"/><g class="cls-12"><path d="M471.17,327a38.22,38.22,0,0,1-25.84,19.14c-2.25.44-4.72.65-6.71-.5-2.71-1.58-3.55-5.11-3.51-8.25s0-7.4,0-10.39Z"/></g><path class="cls-9" d="M408.71,328.19c-.18,1.7-11.18,83.54-11.18,83.54l3.83.13L415.45,329Z"/><path class="cls-9" d="M455.07,328c.16,1.68,12,84,12,84h-3.84l-14.7-82.72Z"/><path class="cls-9" d="M439.82,255.06a12.79,12.79,0,0,0-12.68-12.74c-7.92-.06-16.88,0-19,.47-3.7.76-7.33,2.71-9.29,5.94s-2,7.29-2,11.09q.11,24.07.2,48.15l43-.18Z"/><path class="cls-9" d="M397,305.75c-.15,9.49.76,17.2,7.79,20.9,5.25,2.77,11.59,2.81,17.63,2.77l26.12-.14c2.64,0,5.48-.08,7.64-1.52a7.42,7.42,0,0,0,2.93-7.3,13.75,13.75,0,0,0-4-7.14c-7.58-7.82-19.52-10.11-30.62-12"/><path class="cls-9" d="M455.53,323.64c6.29-.42,3.33-9.45,3.17-19.51-.09-6.31-4.28-12.49-8.85-16.84a21.46,21.46,0,0,0-8-4.48,49.74,49.74,0,0,0-24.34-1.56S405.53,326.89,455.53,323.64Z"/><polygon class="cls-9" points="412.16 335.43 456.55 355.76 455.96 357.27 411.32 336.99 412.16 335.43"/><polygon class="cls-9" points="409.49 357.68 451.66 334.16 452.46 335.58 410.18 359.34 409.49 357.68"/><path class="cls-7" d="M484.84,365.52a3.9,3.9,0,0,1-.13-.76c-.07-.55-.16-1.28-.28-2.2-.22-2-.54-4.71-.92-8.08-.73-6.88-1.73-16.29-2.84-26.69-.27-2.61-.53-5.14-.78-7.61a26.31,26.31,0,0,0-1.42-6.9,10.87,10.87,0,0,0-3.77-5,15.19,15.19,0,0,0-5-2.35,30.36,30.36,0,0,0-8-.83h-2.21a5,5,0,0,1-.77,0,3.31,3.31,0,0,1,.77-.09c.5,0,1.25-.08,2.21-.11a28.77,28.77,0,0,1,8.12.68,15.33,15.33,0,0,1,5.15,2.35,11.27,11.27,0,0,1,4,5.14,27,27,0,0,1,1.47,7q.39,3.69.8,7.62c1,10.4,2,19.82,2.69,26.7.31,3.38.57,6.14.75,8.1.08.92.14,1.66.18,2.21A3.75,3.75,0,0,1,484.84,365.52Z"/><path class="cls-7" d="M445.38,221.89c0,.06-.55.18-1.46.64a9.1,9.1,0,0,0-3.17,2.84,11.56,11.56,0,0,0-2.06,5.92A21.9,21.9,0,0,0,440,239c1.62,5.38,3.53,10.1,4.78,13.57l1.52,4.09a9,9,0,0,1,.49,1.52,9.58,9.58,0,0,1-.68-1.45c-.41-.94-1-2.32-1.67-4-1.34-3.43-3.31-8.14-4.94-13.55a21.71,21.71,0,0,1-1.25-7.87,11.85,11.85,0,0,1,2.24-6.11,8.83,8.83,0,0,1,3.38-2.8A5.59,5.59,0,0,1,445,222,2.13,2.13,0,0,1,445.38,221.89Z"/><path class="cls-7" d="M446.69,193.89a16.37,16.37,0,0,1-5.84,0A16.37,16.37,0,0,1,446.69,193.89Z"/></g><g id="freepik--character-2--inject-6"><path class="cls-7" d="M319.13,165.11c.32-3.64,2.69-7.38,1.15-10.7-1.1-2.36-3.83-3.52-5.28-5.69-2.12-3.16-1-7.57-2.59-11a8.17,8.17,0,0,0-1.66-2.34,6.73,6.73,0,0,0,1.73.17,5.45,5.45,0,0,0,5-3.46,5,5,0,0,0-2.59-5.8,5.83,5.83,0,0,0-6.42,1.16,6.94,6.94,0,0,0-2,5.28,35.13,35.13,0,0,0-5.69-1.61L278.53,135c1.31,3.35-.51,7-2.29,10.15s-3.64,6.77-2.4,10.15c.66,1.8,2.18,3.59,1.49,5.37-.35.92-2.38,4.22-2.75,5.14-2.86,7.16-.83,12,.41,16,17.79,2.93,30.9,12.34,48.05,6.76C332.59,181.73,318.82,168.69,319.13,165.11Z"/><path class="cls-15" d="M217.28,204.4a22.27,22.27,0,0,1-3.39-2.1,5.8,5.8,0,0,1-1.41-1.47,9.16,9.16,0,0,1-1.21-2.24.79.79,0,0,0-.92-.63.8.8,0,0,0-.56.42c-.26.66.23,2.76,1.84,4.71s-2.29,1.16-3.72.9-5.86-.87-6.29-.49c-.63.55-.15,1.32,1.27,1.55s5.67,1.21,5.49,2-7.4-.7-7.4-.7-1.5-.56-1.73.3c-.41,1.54,7.39,2.5,8.13,2.57.52,0,.36.86-.2.78s-7.17-1.59-7.61,0c-.34,1.2,6.4.85,7.6,1.92s-5.14-.25-5.41.91c-.11.43-.12.77,3.63,1,1.27.07,3.27,0,5.37-.1h0l10.62.35,3.33-9.67Z"/><path class="cls-4" d="M198.61,186.67c.16.84,20,28.5,20,28.5L198.53,229.4,177.6,200.32Z"/><path class="cls-17" d="M198.61,186.67c.16.84,20,28.5,20,28.5L198.53,229.4,177.6,200.32Z"/><path class="cls-4" d="M198.85,184.83c.17.85,20,28.5,20,28.5l-20.1,14.24-20.91-29.08Z"/><polygon class="cls-3" points="212.94 205.04 212.6 207.49 217.24 214.49 218.87 213.33 212.94 205.04"/><path class="cls-7" d="M200,199.44a49.12,49.12,0,0,1-8.55,5.48,25,25,0,0,1,4.14-3A25.45,25.45,0,0,1,200,199.44Z"/><path class="cls-7" d="M197.9,199.19a10.53,10.53,0,0,1-2.69,1.84,10.38,10.38,0,0,1-3,1.39,10.58,10.58,0,0,1,2.7-1.84A10.44,10.44,0,0,1,197.9,199.19Z"/><polygon class="cls-15" points="308.09 358.3 340.55 398.06 348.77 388.01 324.22 352.45 308.09 358.3"/><path class="cls-4" d="M339.86,399l-1-.91L348.32,387l4.06,3.72-.56.71c-2.55,3.09-13.2,15.54-15.61,17C333.53,410,339.86,399,339.86,399Z"/><g class="cls-5"><path class="cls-6" d="M348.75,394.51a5,5,0,0,1-1-3.46,4.89,4.89,0,0,1,1.52-3.2l3,2.75Z"/></g><g class="cls-5"><path class="cls-6" d="M336.93,404.52s-2,4-1.12,4.11,12.11-12.1,16.59-17.91l-.25-.2-13,14.32S337.53,403.89,336.93,404.52Z"/></g><path class="cls-7" d="M352.3,390.35l-.15.2c-.14.17-.29.35-.45.56-.47.54-1,1.22-1.71,2-1.45,1.69-3.48,4-5.79,6.51s-4.44,4.72-6,6.31l-1.87,1.86-.52.5-.18.17s0-.07.16-.2l.49-.52,1.83-1.9c1.54-1.61,3.66-3.84,6-6.34s4.35-4.8,5.83-6.47l1.74-2,.48-.53C352.23,390.41,352.29,390.34,352.3,390.35Z"/><path class="cls-7" d="M339.34,405a6.21,6.21,0,0,0-1.26-.49,6.09,6.09,0,0,0-1.35,0,2.33,2.33,0,0,1,2.61.51Z"/><path class="cls-7" d="M340.65,400.37h-.72a1.68,1.68,0,0,1-.69-.21c0-.05.33,0,.72,0A.94.94,0,0,1,340.65,400.37Z"/><path class="cls-7" d="M341,399.09c0,.05-.27.11-.6.14a3.46,3.46,0,0,1-.61,0,2.19,2.19,0,0,1,.59-.14C340.7,399.06,341,399,341,399.09Z"/><path class="cls-7" d="M340.53,397.61a3.29,3.29,0,0,1-.44.62c-.28.31-.53.54-.57.51s.16-.31.44-.62S340.45,397.58,340.53,397.61Z"/><path class="cls-7" d="M340,396.77a1.55,1.55,0,0,1-.39.79c-.31.39-.65.6-.68.56s.25-.3.54-.67S339.9,396.75,340,396.77Z"/><path class="cls-7" d="M339.38,399.89a2.72,2.72,0,0,1-.63.68,4.83,4.83,0,0,1-.84.58,2.31,2.31,0,0,1-.55.26.59.59,0,0,1-.37,0,.34.34,0,0,1-.18-.35,1.71,1.71,0,0,1,1.8-1.22,1.41,1.41,0,0,1,.66.2.51.51,0,0,1,.21.15,3,3,0,0,0-.88-.23,1.67,1.67,0,0,0-.92.24,1.48,1.48,0,0,0-.7.87c0,.18.15.26.34.2a3.43,3.43,0,0,0,.52-.23,7.36,7.36,0,0,0,.83-.54C339.12,400.12,339.36,399.89,339.38,399.89Z"/><path class="cls-7" d="M339.25,400.08a.76.76,0,0,1-.54-.35,1.49,1.49,0,0,1-.33-.65,1,1,0,0,1,.17-.9.38.38,0,0,1,.52.08,1.23,1.23,0,0,1,.19.4,2.85,2.85,0,0,1,.12.71,1.44,1.44,0,0,1-.08.65v-.64a3.82,3.82,0,0,0-.15-.67c-.06-.23-.26-.53-.45-.39a.84.84,0,0,0-.12.72,1.51,1.51,0,0,0,.26.61A2.78,2.78,0,0,0,339.25,400.08Z"/><path class="cls-7" d="M349.18,387.89a10.69,10.69,0,0,0-.7.81,4.53,4.53,0,0,0-.35,4.85c.31.58.6.88.58.9s-.09-.06-.22-.2a3.63,3.63,0,0,1-.47-.64,4.33,4.33,0,0,1,.41-5,3.77,3.77,0,0,1,.56-.57C349.08,387.89,349.17,387.89,349.18,387.89Z"/><path class="cls-7" d="M346.53,394.89a8.54,8.54,0,0,1-1.3,1.69,7.61,7.61,0,0,1-1.57,1.43s.66-.69,1.44-1.55A20.69,20.69,0,0,1,346.53,394.89Z"/><path class="cls-7" d="M348.4,392.8c.05,0,.09.2.19.42s.2.38.16.42-.22-.1-.32-.36S348.35,392.8,348.4,392.8Z"/><path class="cls-7" d="M348.15,391.11a1,1,0,0,1,.1.38c0,.21,0,.39-.07.39s-.09-.16-.1-.38S348.1,391.11,348.15,391.11Z"/><path class="cls-7" d="M348.74,389.57a3.45,3.45,0,0,0-.2.39c-.09.21-.11.4-.16.4s-.11-.22,0-.47S348.71,389.53,348.74,389.57Z"/><path class="cls-7" d="M349.27,388.57v.25c0,.12-.12.21-.17.19s0-.13,0-.25A.19.19,0,0,1,349.27,388.57Z"/><polygon class="cls-15" points="253.1 390.58 250.24 408.15 265.27 408.15 268.73 393.83 253.1 390.58"/><path class="cls-4" d="M250.72,408.53l.05-1.34,14.59-.06-.17,5.51h-.9c-4,.08-20.39.12-23-.79C238.3,410.89,250.72,408.53,250.72,408.53Z"/><g class="cls-5"><path class="cls-6" d="M259.94,412.34a5,5,0,0,1,2-3,4.86,4.86,0,0,1,3.42-.93l-.14,4Z"/></g><g class="cls-5"><path class="cls-6" d="M244.64,409.89s-4.36,1.09-3.85,1.83,17.07,1.31,24.4.93v-.33l-19.32-.51S245.53,410,244.64,409.89Z"/></g><path class="cls-7" d="M265.4,412.31a.53.53,0,0,1-.25,0H261.8c-2.23,0-5.31,0-8.71-.15s-6.47-.3-8.7-.45l-2.63-.2-.71-.07h.72l2.63.14c2.22.13,5.3.28,8.7.4s6.47.18,8.7.21h3.35Z"/><path class="cls-7" d="M245.86,412a7.1,7.1,0,0,0-.45-1.27,5.53,5.53,0,0,0-.87-1,1.89,1.89,0,0,1,1,.95A2,2,0,0,1,245.86,412Z"/><path class="cls-7" d="M250.21,410a2.93,2.93,0,0,1-.44-.57,1.56,1.56,0,0,1-.28-.66,3.14,3.14,0,0,1,.43.57A1.63,1.63,0,0,1,250.21,410Z"/><path class="cls-7" d="M251.41,409.42a2,2,0,0,1-.5-.36c-.24-.24-.41-.45-.38-.48s.26.12.5.36S251.44,409.39,251.41,409.42Z"/><path class="cls-7" d="M252.2,408.08a3.25,3.25,0,0,1-1.52,0A3.25,3.25,0,0,1,252.2,408.08Z"/><path class="cls-7" d="M252.53,407.12a1.46,1.46,0,0,1-.86.22,1.41,1.41,0,0,1-.86-.15,6.17,6.17,0,0,1,.86,0A8.09,8.09,0,0,1,252.53,407.12Z"/><path class="cls-7" d="M249.76,408.72a2.9,2.9,0,0,1-.93,0,4.88,4.88,0,0,1-1-.25,2.37,2.37,0,0,1-.56-.26.46.46,0,0,1-.22-.29.36.36,0,0,1,.15-.37,1.73,1.73,0,0,1,2.1.57,1.67,1.67,0,0,1,.28.64V409a2.53,2.53,0,0,0-.39-.81,1.74,1.74,0,0,0-.78-.55,1.43,1.43,0,0,0-1.11,0c-.15.1-.1.28.06.38a2.41,2.41,0,0,0,.51.25,7.94,7.94,0,0,0,.95.28C249.41,408.68,249.76,408.69,249.76,408.72Z"/><path class="cls-7" d="M249.53,408.76a1,1,0,0,1-.08-.65,1.51,1.51,0,0,1,.27-.67.93.93,0,0,1,.8-.45.38.38,0,0,1,.27.44,1,1,0,0,1-.17.41,3.05,3.05,0,0,1-.46.55,1.54,1.54,0,0,1-.55.36,5.88,5.88,0,0,0,.46-.45,3.15,3.15,0,0,0,.41-.55c.13-.19.23-.54,0-.59s-.48.19-.63.37a1.5,1.5,0,0,0-.28.6A2.67,2.67,0,0,0,249.53,408.76Z"/><path class="cls-7" d="M265.25,408.34a9.55,9.55,0,0,0-1.07,0,4.52,4.52,0,0,0-2.37.88,4.61,4.61,0,0,0-1.54,2c-.24.61-.28,1-.31,1a.71.71,0,0,1,0-.29,4,4,0,0,1,.19-.78,4.39,4.39,0,0,1,4-3,4.25,4.25,0,0,1,.8.05C265.15,408.29,265.25,408.32,265.25,408.34Z"/><path class="cls-7" d="M258.16,410.89A8.37,8.37,0,0,1,256,411a8,8,0,0,1-2.12-.26l2.12.09C257.21,410.88,258.16,410.82,258.16,410.89Z"/><path class="cls-7" d="M261,411s-.08.2-.19.42-.16.4-.21.4-.07-.24.06-.48S261,410.89,261,411Z"/><path class="cls-7" d="M262.12,409.66a1.08,1.08,0,0,1-.22.33c-.15.15-.31.24-.34.2s.06-.18.22-.33S262.09,409.62,262.12,409.66Z"/><path class="cls-7" d="M263.67,409.1s-.2,0-.42.11-.37.18-.41.14.1-.23.36-.31S263.69,409.06,263.67,409.1Z"/><path class="cls-7" d="M264.78,408.89a.45.45,0,0,1-.2.16.38.38,0,0,1-.25,0s.07-.12.2-.16S264.76,408.81,264.78,408.89Z"/><path class="cls-7" d="M278.28,249.58s-12.53,37.84-16.75,70.55-10.29,77.66-10.29,77.66l17.49,1.1,26.7-88.51L312.64,286a51.47,51.47,0,0,0,9.1-35.6l-.59-5.11Z"/><path class="cls-7" d="M278.1,257.72l9.16,75.48a35.41,35.41,0,0,0,9,19.56l33,36.25,11.59-14.12-30.32-48.17,6.8-75.83-40.91,7.77"/><path class="cls-9" d="M310.87,326.12a35.61,35.61,0,0,0-3.14,2.61,37.17,37.17,0,0,0-2.44,3.28,8.81,8.81,0,0,1,5.58-5.89Z"/><path class="cls-9" d="M310.31,326.68a23.34,23.34,0,0,1-3.23.28,27,27,0,0,1-3.23.35,7.1,7.1,0,0,1,3.18-.86A6.88,6.88,0,0,1,310.31,326.68Z"/><path class="cls-9" d="M320.64,267.49a8.11,8.11,0,0,1-.14.86l-.21,1c-.09.41-.24.87-.39,1.39a33.36,33.36,0,0,1-4.07,8.25c-2.14,3.3-5.13,6.9-8.3,10.9a65,65,0,0,0-4.61,6.56,77.62,77.62,0,0,0-4,7.61c-2.47,5.37-4.46,10.65-6.16,15.49s-3.1,9.24-4.28,12.93l-2.82,8.75c-.33,1-.6,1.78-.8,2.37a4.67,4.67,0,0,1-.31.81,4,4,0,0,1,.21-.84c.18-.59.41-1.39.71-2.4l2.65-8.8c1.15-3.71,2.52-8.12,4.19-13a164.59,164.59,0,0,1,6.14-15.55,81.9,81.9,0,0,1,4-7.66,64.66,64.66,0,0,1,4.67-6.58c3.2-4,6.2-7.54,8.36-10.75a33.81,33.81,0,0,0,4.18-8.1c.17-.52.34-1,.44-1.37s.19-.73.26-1A4.41,4.41,0,0,1,320.64,267.49Z"/><path class="cls-4" d="M276.42,180.46a59.27,59.27,0,0,0-.84,18.41,150.41,150.41,0,0,0,5,23.67l-2.75,28.29,45.1-.58L314.34,217l2-7.64,5.27-30a20.85,20.85,0,0,0-13.31-4.88c-8,.07-19.6,0-19.6,0S279.84,173.26,276.42,180.46Z"/><path class="cls-4" d="M277.53,178.6l-16.72,25-40.66.57-1.56,10.48s44.8,7.58,47.79,6.59c4.71-1.53,13.15-12.85,13.15-12.85Z"/><path class="cls-7" d="M299.2,211c.46.92,32.27,26.19,32.27,26.19L313,260.13l-33.5-26.56Z"/><path class="cls-4" d="M298.84,207.73c.46.92,32.27,26.2,32.27,26.2l-18.44,22.89-33.5-26.56Z"/><path class="cls-17" d="M298.84,207.73c.46.92,32.27,26.2,32.27,26.2l-18.44,22.89-33.5-26.56Z"/><path class="cls-9" d="M298.53,205.55c.46.92,32.26,26.19,32.26,26.19l-18.43,22.9-33.51-26.57Z"/><polygon class="cls-3" points="321.28 224.15 321.7 227.08 329.3 233.6 330.79 231.74 321.28 224.15"/><path class="cls-7" d="M304.53,222a35.34,35.34,0,0,1-3.83,4.71,34.1,34.1,0,0,1-4.21,4.37,38.35,38.35,0,0,1,3.82-4.71A35.56,35.56,0,0,1,304.53,222Z"/><path class="cls-7" d="M302.12,222.34a14.86,14.86,0,0,1-2.53,3,14.64,14.64,0,0,1-2.91,2.59,15.14,15.14,0,0,1,2.53-3A14.64,14.64,0,0,1,302.12,222.34Z"/><path class="cls-15" d="M303,251.63h0l8.7-7.26-4.21-10.06-5.86,5.32a23.71,23.71,0,0,1-4.19.73,6.6,6.6,0,0,1-2.17-.16,10.18,10.18,0,0,1-2.56-.92.84.84,0,0,0-1.18.14.85.85,0,0,0-.15.74c.27.71,2.16,2,4.81,2.44,2.39.37-.31,2.13-1.84,3.07a.64.64,0,0,0-.25.81C295,248.31,298.08,254.23,303,251.63Z"/><path class="cls-7" d="M279.9,218.89a5.49,5.49,0,0,1-.44-1.1c-.26-.72-.59-1.78-.95-3.09a59.48,59.48,0,0,1-1.85-10.51,46.93,46.93,0,0,1,.35-10.66,28.24,28.24,0,0,1,.64-3.17,4.49,4.49,0,0,1,.35-1.13c.09,0-.3,1.66-.63,4.35a54.91,54.91,0,0,0-.19,10.57,69.92,69.92,0,0,0,1.69,10.46c.31,1.32.58,2.38.78,3.12A5.11,5.11,0,0,1,279.9,218.89Z"/><path class="cls-4" d="M321.89,179.44s14.78,19.84,18.66,37.57c1.22,5.59-32.33,32.12-32.33,32.12l-7.69-10.35,23-22.49s-10.87-19.63-11.43-25.79C311.43,183.58,317.29,178.09,321.89,179.44Z"/><path class="cls-7" d="M314.17,179.89a8.41,8.41,0,0,0-2.42,2.94,9.89,9.89,0,0,0-.9,4,16.38,16.38,0,0,0,.88,5,74.73,74.73,0,0,0,3.66,8.65c1.06,2.16,1.78,3.47,1.71,3.51a4.32,4.32,0,0,1-.61-.86c-.36-.58-.86-1.42-1.43-2.48a57.1,57.1,0,0,1-3.82-8.66,15.68,15.68,0,0,1-.87-5.17,9.6,9.6,0,0,1,1.05-4.17,7.12,7.12,0,0,1,1.83-2.25A2.53,2.53,0,0,1,314.17,179.89Z"/><path class="cls-7" d="M330.06,216.42c-.06.15-1.57-.33-3.49-.38s-3.46.32-3.5.17a8.07,8.07,0,0,1,7,.21Z"/><path class="cls-7" d="M328.64,218.94c-.12.11-1-.92-2.53-1.67s-2.84-.94-2.82-1.1a4.51,4.51,0,0,1,3.06.64A4.45,4.45,0,0,1,328.64,218.94Z"/><path class="cls-15" d="M288.77,169.19s-6.39-1.06-7.72-9.4c-.66-4.15-.45-11-.1-16.51a8.8,8.8,0,0,1,9.34-8.24l.38,0,14.47,1.53c1.51.16,1.48,1.28,1.45,2.8l.91,37.6a9.32,9.32,0,0,1-9.32,9.26h0a9.34,9.34,0,0,1-9.32-9.21l-.09-7.86"/><path class="cls-7" d="M283.12,148.68a1.06,1.06,0,0,0,1,1.08,1,1,0,0,0,1.09-.89.41.41,0,0,0,0-.11,1.06,1.06,0,0,0-1-1.08,1,1,0,0,0-1.09.89A.41.41,0,0,0,283.12,148.68Z"/><path class="cls-7" d="M282.43,146.82c.13.14.94-.46,2.09-.46s2,.58,2.12.44-.07-.31-.44-.58a2.87,2.87,0,0,0-1.7-.52,2.74,2.74,0,0,0-1.66.53C282.53,146.5,282.36,146.76,282.43,146.82Z"/><path class="cls-7" d="M294.37,148.68a1.06,1.06,0,0,0,1,1.08,1,1,0,0,0,1.09-.89.41.41,0,0,0,0-.11,1.06,1.06,0,0,0-1-1.08,1,1,0,0,0-1.09.89A.41.41,0,0,0,294.37,148.68Z"/><path class="cls-7" d="M293.74,147c.13.14,1-.46,2.1-.45s2,.58,2.11.43-.07-.31-.44-.58a3,3,0,0,0-1.69-.52,2.84,2.84,0,0,0-1.67.54C293.8,146.72,293.68,147,293.74,147Z"/><path class="cls-7" d="M289.53,155.57a7.43,7.43,0,0,0-1.87-.34c-.29,0-.57-.09-.62-.29a1.55,1.55,0,0,1,.2-.87c.28-.71.56-1.45.87-2.24a37.52,37.52,0,0,0,1.95-5.85,38.31,38.31,0,0,0-2.42,5.68c-.29.79-.57,1.54-.83,2.26a1.69,1.69,0,0,0-.15,1.15.71.71,0,0,0,.48.43,1.68,1.68,0,0,0,.5.07A7.47,7.47,0,0,0,289.53,155.57Z"/><path class="cls-14" d="M288.77,169.19a21.29,21.29,0,0,0,11.17-3s-2.71,5.73-11.06,5Z"/><path class="cls-14" d="M290.05,158.34a2.14,2.14,0,0,1,1.86-.77,1.93,1.93,0,0,1,1.31.71,1.21,1.21,0,0,1,.09,1.37,1.4,1.4,0,0,1-1.51.38,4.33,4.33,0,0,1-1.47-.88,1.33,1.33,0,0,1-.33-.34.38.38,0,0,1,0-.43"/><path class="cls-7" d="M293,156.37c-.19,0-.19,1.24-1.26,2.12s-2.4.75-2.41.93.3.24.86.25a3.09,3.09,0,0,0,2-.7,2.65,2.65,0,0,0,1-1.78C293.18,156.67,293,156.36,293,156.37Z"/><path class="cls-7" d="M293.22,145c.12.31,1.27.16,2.62.33s2.44.53,2.62.25-.11-.43-.55-.74a4.43,4.43,0,0,0-2-.68,4.53,4.53,0,0,0-2,.24C293.42,144.62,293.17,144.89,293.22,145Z"/><path class="cls-7" d="M282.85,144.47c.2.26,1,0,1.95,0s1.76.17,2-.1-.05-.4-.4-.64a2.83,2.83,0,0,0-3.14.09C282.87,144.07,282.76,144.34,282.85,144.47Z"/><path class="cls-7" d="M277.85,135.89a6.21,6.21,0,0,1,4.51-4.7c1.47-.27,3,.16,4.47.07,1.23-.08,1.68-1.06,2.85-1.45,2-.64,3.46-2.81,7.68-2.36,1.12.12,2.57,1.43,3.6,2.91,1.62-.69,3.75.06,4.91.57,2.42,1,3.93,3.77,4.4,6.53a27.33,27.33,0,0,1-.3,8.37c-.18,1.27-.36,2.54-.53,3.81a6.64,6.64,0,0,1-.68,2.42l1.73,22.7c-7-.18-8.4-6-9.25-10-.74-3.51,1.21-7.09.9-10.66-.18-2.13-1.38-4.11-1.38-6.25a9.08,9.08,0,0,1,.3-2.07h0c-3.39-2.75-4.26-5-4.11-7.54a6.51,6.51,0,0,1-3.54,1.17c-1.78,0-3.64-.67-5.31,0a9.11,9.11,0,0,0-3,2.41,4.32,4.32,0,0,1-3.38,1.56,8.36,8.36,0,0,1-1.76-.62,2.17,2.17,0,0,0-1.8,0A14,14,0,0,1,277.85,135.89Z"/></g><g id="freepik--character-1--inject-6"><path class="cls-15" d="M185.64,214.89a9.49,9.49,0,0,0-3.19-.09c2.18-.42,3.07-1,3-1.6-.08-1-5.16-.5-7.53-.22a46.24,46.24,0,0,0,6.5-1.12c1.12-.5-.2-1.15-1.45-1.38s-9.71-.61-12.11-.84a1.41,1.41,0,0,1-1.44-1.38,1.62,1.62,0,0,1,0-.22c1-3.36-.08-6.49-.76-7.21s-1.89,0-1.74,1.06a12.7,12.7,0,0,1-.32,3.53,8.37,8.37,0,0,1-1,2.64c-.55.94-1.06,1.72-1.51,2.38L131,237l-4.75-4.15-10.46,12.37,8.15,7.78a9.06,9.06,0,0,0,12.38.13l32.48-29.83,12.28-4.27c3.17-.88,4.42-1.47,4.22-2-.28-.78-.14-.49-6.13.29C179.15,217.31,187.69,216.12,185.64,214.89Z"/><path class="cls-14" d="M176.46,217.59a15.47,15.47,0,0,0,4.13-.37,15.28,15.28,0,0,0,4-.91,31,31,0,0,0-8.17,1.28Z"/><path class="cls-14" d="M175.85,215.27a17.68,17.68,0,0,0,4.42-.14,17.87,17.87,0,0,0,4.36-.69,17.68,17.68,0,0,0-4.42.14A17.87,17.87,0,0,0,175.85,215.27Z"/><path class="cls-14" d="M175.68,213.08a15.48,15.48,0,0,0,4.19-.06,16.14,16.14,0,0,0,4.14-.62,16.33,16.33,0,0,0-4.19.07A16.58,16.58,0,0,0,175.68,213.08Z"/><path class="cls-9" d="M103.09,324.06c.17,1.76,12.52,87.69,12.52,87.69h-4L96.29,325.38Z"/><path class="cls-9" d="M129.4,319.37c6.58-.21,3.48-9.87,3.32-20.38-.1-6.59-4.48-13.05-9.26-17.59a22.39,22.39,0,0,0-8.38-4.68,52.06,52.06,0,0,0-25.42-1.63S87.69,320.68,129.4,319.37Z"/><path class="cls-9" d="M172.27,355.68l-3.58-7.41-13.91,6.62,5.12,10.88.89-.35c3.94-1.62,19.93-8.48,22.12-10.48C185.36,352.72,172.27,355.68,172.27,355.68Z"/><path class="cls-7" d="M159.53,365.56l.25-.09.7-.29,2.59-1.09c2.17-.94,5.15-2.27,8.42-3.82s6.18-3,8.29-4.1l2.48-1.31.66-.37a.79.79,0,0,0,.23-.14l-.24.11-.69.34-2.5,1.25c-2.12,1.06-5.05,2.5-8.31,4s-6.24,2.9-8.4,3.87l-2.48,1.2-.7.32Z"/><path class="cls-7" d="M178.53,357a5.71,5.71,0,0,1-.1-1.43,6.06,6.06,0,0,1,.4-1.38,2.06,2.06,0,0,0-.59,1.36A2,2,0,0,0,178.53,357Z"/><path class="cls-7" d="M173.39,356.89a3.72,3.72,0,0,0,.19-.74,1.67,1.67,0,0,0,0-.77c-.06,0-.14.33-.19.74A1.67,1.67,0,0,0,173.39,356.89Z"/><path class="cls-7" d="M172,356.89a1.33,1.33,0,0,0,.34-.56c.14-.33.21-.61.16-.63s-.2.23-.34.56S171.93,356.82,172,356.89Z"/><path class="cls-7" d="M170.64,355.89a3.2,3.2,0,0,0,.77-.25c.4-.19.72-.37.7-.42s-.37.07-.77.25A1.93,1.93,0,0,0,170.64,355.89Z"/><path class="cls-7" d="M170,355.05a1.54,1.54,0,0,0,.92-.15,1.65,1.65,0,0,0,.79-.5,5,5,0,0,0-.86.33A5.12,5.12,0,0,0,170,355.05Z"/><path class="cls-7" d="M173.29,355.46a2.93,2.93,0,0,0,.89-.43,5.38,5.38,0,0,0,.85-.66,4,4,0,0,0,.44-.48.53.53,0,0,0,.09-.39.37.37,0,0,0-.31-.29,1.81,1.81,0,0,0-1.8,1.44,1.84,1.84,0,0,0,0,.74.55.55,0,0,0,.1.25,2.41,2.41,0,0,1,0-1,1.84,1.84,0,0,1,.53-.86,1.54,1.54,0,0,1,1.1-.43c.19,0,.21.23.1.4a2.15,2.15,0,0,1-.4.45,5.84,5.84,0,0,1-.81.68C173.61,355.27,173.27,355.43,173.29,355.46Z"/><path class="cls-7" d="M173.53,355.4a1,1,0,0,0-.19-.67,1.61,1.61,0,0,0-.56-.54,1,1,0,0,0-1-.1.4.4,0,0,0-.08.54,1.33,1.33,0,0,0,.34.33,2.88,2.88,0,0,0,.68.34,1.48,1.48,0,0,0,.69.12,6.23,6.23,0,0,1-.64-.25,3.25,3.25,0,0,1-.63-.35c-.21-.13-.46-.43-.25-.58a.88.88,0,0,1,.77.1,1.68,1.68,0,0,1,.53.46A3,3,0,0,1,173.53,355.4Z"/><path class="cls-7" d="M158,361.61a6.52,6.52,0,0,1,1.05-.45,5,5,0,0,1,2.68-.14,4.85,4.85,0,0,1,2.34,1.32c.5.49.71.88.74.86a1,1,0,0,0-.13-.28,4.83,4.83,0,0,0-.51-.68A4.7,4.7,0,0,0,159,361a4.4,4.4,0,0,0-.75.38A1.18,1.18,0,0,0,158,361.61Z"/><path class="cls-7" d="M156.72,355.14a28.56,28.56,0,0,0,1.24,2.91,25.86,25.86,0,0,0,1.41,2.84,28.56,28.56,0,0,0-1.24-2.91A25.86,25.86,0,0,0,156.72,355.14Z"/><path class="cls-7" d="M166,361.08a8.09,8.09,0,0,0,2.13-.76,9,9,0,0,0,2-1.13c0-.05-.91.44-2,1S166,361,166,361.08Z"/><path class="cls-7" d="M163.27,362.38c0,.05.17.15.36.32s.33.32.38.3,0-.26-.26-.44S163.29,362.33,163.27,362.38Z"/><path class="cls-7" d="M161.64,361.59a.93.93,0,0,0,.35.22c.21.07.4.11.42.06s-.14-.15-.35-.23S161.66,361.54,161.64,361.59Z"/><path class="cls-7" d="M159.89,361.7a3.8,3.8,0,0,1,.45-.07,3.12,3.12,0,0,1,.46,0,.58.58,0,0,0-.48-.15C160,361.51,159.86,361.66,159.89,361.7Z"/><path class="cls-7" d="M158.71,361.89c0,.05.12.09.26.08s.24-.06.24-.11-.12-.09-.26-.08A.42.42,0,0,0,158.71,361.89Z"/><path class="cls-9" d="M132.29,407.61l-.15-8.22-15.41.18.09,12,1,.05c4.25.19,21.64.65,24.47-.24C145.41,410.41,132.29,407.61,132.29,407.61Z"/><path class="cls-7" d="M116.6,411.25h1l2.81.09c2.36.06,5.63.1,9.24.06s6.88-.14,9.25-.25l2.8-.14.76-.06h-.72L139,411c-2.36.07-5.63.16-9.24.2s-6.88,0-9.24,0H116.6Z"/><path class="cls-7" d="M137.36,411.44a6.6,6.6,0,0,1,.51-1.34,6.45,6.45,0,0,1,.94-1.08,2.53,2.53,0,0,0-1.45,2.42Z"/><path class="cls-7" d="M132.79,409.19a3.1,3.1,0,0,0,.48-.6,1.62,1.62,0,0,0,.32-.69,1.89,1.89,0,0,0-.48.59C132.89,408.84,132.74,409.16,132.79,409.19Z"/><path class="cls-7" d="M131.53,408.54a2,2,0,0,0,.54-.37c.26-.25.45-.46.41-.5s-.27.13-.53.37A1.92,1.92,0,0,0,131.53,408.54Z"/><path class="cls-7" d="M130.73,407.1a1.82,1.82,0,0,0,.8.09.41.41,0,1,0,0-.19A1.82,1.82,0,0,0,130.73,407.1Z"/><path class="cls-7" d="M130.45,406.08a1.67,1.67,0,0,0,.9.25,1.55,1.55,0,0,0,.92-.14,5.56,5.56,0,0,0-.91-.05A4.64,4.64,0,0,0,130.45,406.08Z"/><path class="cls-7" d="M133.3,407.89a2.8,2.8,0,0,0,1,0,6.15,6.15,0,0,0,1-.24,2.66,2.66,0,0,0,.6-.26.57.57,0,0,0,.24-.31.37.37,0,0,0-.16-.39,1.79,1.79,0,0,0-2.23.55,1.89,1.89,0,0,0-.32.67.61.61,0,0,0,0,.27,2.46,2.46,0,0,1,.44-.85,1.72,1.72,0,0,1,.84-.56,1.56,1.56,0,0,1,1.18.06c.16.12.1.31-.08.41a3.87,3.87,0,0,1-.55.25,5.92,5.92,0,0,1-1,.27C133.67,407.8,133.29,407.81,133.3,407.89Z"/><path class="cls-7" d="M133.53,407.89a1,1,0,0,0,.11-.69,1.56,1.56,0,0,0-.28-.72,1,1,0,0,0-.83-.5.39.39,0,0,0-.3.46,1.12,1.12,0,0,0,.17.44,2.75,2.75,0,0,0,.48.6,1.33,1.33,0,0,0,.57.39s-.2-.18-.48-.49a3.51,3.51,0,0,1-.42-.59c-.14-.2-.23-.58,0-.63s.51.22.66.42a1.69,1.69,0,0,1,.29.64A3.76,3.76,0,0,1,133.53,407.89Z"/><path class="cls-7" d="M116.87,407H118a4.86,4.86,0,0,1,4.08,3.17c.24.66.27,1.1.3,1.1a.81.81,0,0,0,0-.31,4,4,0,0,0-.18-.83,4.7,4.7,0,0,0-1.59-2.28,4.64,4.64,0,0,0-2.59-1,4,4,0,0,0-.85,0A.85.85,0,0,0,116.87,407Z"/><path class="cls-7" d="M118.39,400.6a30.43,30.43,0,0,0-.1,3.17,27.9,27.9,0,0,0,.09,3.17,25.77,25.77,0,0,0,.1-3.17A27.9,27.9,0,0,0,118.39,400.6Z"/><path class="cls-7" d="M124.33,409.89a8.94,8.94,0,0,0,2.25.2,9.43,9.43,0,0,0,2.25-.2c0-.06-1,0-2.25,0Z"/><path class="cls-7" d="M121.31,409.89s.08.21.19.44.16.44.21.43.08-.24,0-.51A.56.56,0,0,0,121.31,409.89Z"/><path class="cls-7" d="M120.15,408.52a1.09,1.09,0,0,0,.23.35c.16.16.32.26.36.23s-.07-.2-.23-.36S120.19,408.48,120.15,408.52Z"/><path class="cls-7" d="M118.53,407.89c0,.05.21.05.44.12s.39.2.43.16-.09-.24-.37-.33A.63.63,0,0,0,118.53,407.89Z"/><path class="cls-7" d="M117.36,407.6s.07.12.19.17.25.05.27,0-.07-.13-.2-.17S117.37,407.55,117.36,407.6Z"/><path class="cls-9" d="M69,325.55l27.28-.15c2.76,0,5.73-.08,8-1.59a7.73,7.73,0,0,0,3.06-7.62,14.23,14.23,0,0,0-4.19-7.46c-4.48-4.63-10.43-7.4-16.85-9.28L65.86,234.89c-3.94-.34-7.94-.63-11.81.16s-7.66,2.83-9.71,6.21-2.1,7.63-2.09,11.63q.11,24,.2,48.09c-.15,9.85.82,17.85,8.13,21.7a21.76,21.76,0,0,0,4.09,1.62h0c-.15,1.75-11.78,87.79-11.78,87.79h4l9.4-55.29L79.7,343.64l24.31,11,.62-1.57-23-10.54L100.37,332l-.84-1.49-19.9,11.1-19.26-8.82,1.26-7.39C64.08,325.57,66.53,325.57,69,325.55Zm8.69,17.12-21,11.71,3.36-19.72Z"/><path class="cls-2" d="M56.73,228.25l6.94,34.64-1.24,26,49.49-1.6-4.68-28.9V239.57l6.39,8.09,13.48-15.77L111.24,215h0a27.46,27.46,0,0,0-10.71-6.9,21.5,21.5,0,0,0-6.68-1.28h0a27,27,0,0,1-16.15,0l-2.71.3h-.21a20.6,20.6,0,0,0-18,19.39Z"/><path class="cls-7" d="M107.09,239.79a55.11,55.11,0,0,1-.26-7.49,55.25,55.25,0,0,1,.26-7.5,55.25,55.25,0,0,1,.26,7.5A55.11,55.11,0,0,1,107.09,239.79Z"/><path class="cls-2" d="M75,207.12s-19.16.15-21.53,20.39l-1.19,15,17.37-.34Z"/><path class="cls-7" d="M52.31,242.54a8,8,0,0,1,1.3-.1l3.63-.14L69.88,242l-.24.23c.19-2.89.39-6.05.6-9.35.23-3.71.51-7.26.69-10.46a17.86,17.86,0,0,0-.31-4.5A9.16,9.16,0,0,0,69,214.34,5.75,5.75,0,0,0,64.18,212a6,6,0,0,0-2,.53,1.52,1.52,0,0,1,.46-.3,4.12,4.12,0,0,1,1.53-.43,5.47,5.47,0,0,1,2.5.34,6.22,6.22,0,0,1,2.67,2,9.39,9.39,0,0,1,1.71,3.66,17.81,17.81,0,0,1,.37,4.61c-.16,3.24-.42,6.77-.65,10.48-.22,3.3-.44,6.46-.63,9.35v.23h-.22l-12.65.16H53.61A7.08,7.08,0,0,1,52.31,242.54Z"/><path class="cls-4" d="M82,219.63a26.94,26.94,0,0,1-3.92-2.69A27.9,27.9,0,0,1,74.33,214a18.06,18.06,0,0,1,4,2.51A18.78,18.78,0,0,1,82,219.63Z"/><path class="cls-4" d="M81.82,226.21a11,11,0,0,1-2.25,2.51A11.13,11.13,0,0,1,77,230.85a11.21,11.21,0,0,1,2.25-2.51A11.13,11.13,0,0,1,81.82,226.21Z"/><path class="cls-4" d="M92.43,231.89a8.33,8.33,0,0,1-1.52-2.48,8.15,8.15,0,0,1-1-2.7A16,16,0,0,1,92.43,231.89Z"/><path class="cls-4" d="M103.69,219.28a8.23,8.23,0,0,1-2.41,1.68,8.26,8.26,0,0,1-2.66,1.23,8.19,8.19,0,0,1,2.4-1.68A8.76,8.76,0,0,1,103.69,219.28Z"/><path class="cls-4" d="M101.32,214.27a10.48,10.48,0,0,1-3.24-.49,10.67,10.67,0,0,1-3.11-1,10.1,10.1,0,0,1,3.23.5A10.33,10.33,0,0,1,101.32,214.27Z"/><path class="cls-4" d="M114.22,227.83a6.24,6.24,0,0,1,.29-3,6.4,6.4,0,0,1,1.26-2.78A15.38,15.38,0,0,1,115,225,17.66,17.66,0,0,1,114.22,227.83Z"/><path class="cls-4" d="M78,248a9.38,9.38,0,0,1-2.16-2.24A9.5,9.5,0,0,1,74,243.19,18.59,18.59,0,0,1,78,248Z"/><path class="cls-4" d="M87.35,241.08c-.13.07-.73-.77-1.34-1.88a5.35,5.35,0,0,1-.89-2.13c.13-.07.73.77,1.34,1.88S87.53,241,87.35,241.08Z"/><path class="cls-4" d="M103.85,256.09a21.72,21.72,0,0,1-1.88,2.19,22.94,22.94,0,0,1-1.79,2.25,5.17,5.17,0,0,1,1.39-2.59A5.29,5.29,0,0,1,103.85,256.09Z"/><path class="cls-4" d="M118.19,232.18c.06.13-.65.57-1.64.77s-1.8.08-1.8-.06.77-.26,1.7-.45S118.13,232.05,118.19,232.18Z"/><path class="cls-4" d="M63.81,221.13A6.63,6.63,0,0,1,65,218.89a8.89,8.89,0,0,1,1.66-2,6.27,6.27,0,0,1-1.23,2.25C64.68,220.33,63.93,221.21,63.81,221.13Z"/><path class="cls-4" d="M59.53,224.05c-.13.06-.66-.83-1.18-2a5.34,5.34,0,0,1-.72-2.2c.13-.06.67.83,1.19,2A5.19,5.19,0,0,1,59.53,224.05Z"/><path class="cls-4" d="M62,230.89a4.77,4.77,0,0,1-2.11-.39,5.15,5.15,0,0,1-2-.88A4.73,4.73,0,0,1,60,230C61.2,230.32,62.08,230.71,62,230.89Z"/><path class="cls-4" d="M67.32,229.22a6.19,6.19,0,0,1,.06-2.5,6.28,6.28,0,0,1,.58-2.44,5.9,5.9,0,0,1-.06,2.51A6.37,6.37,0,0,1,67.32,229.22Z"/><path class="cls-4" d="M62.32,238.28a6.45,6.45,0,0,1-2.37-1c-1.23-.67-2.18-1.32-2.11-1.45a6.34,6.34,0,0,1,2.36,1C61.44,237.5,62.39,238.15,62.32,238.28Z"/><path class="cls-4" d="M89.15,217.31c-.15,0-.22-.82-.33-1.82s-.19-1.81,0-1.85.47.75.57,1.8S89.29,217.32,89.15,217.31Z"/><path class="cls-4" d="M102.19,233.16c-.12.08-.79-.8-1.49-1.95a6.15,6.15,0,0,1-1-2.23c.13-.07.8.8,1.5,2A5.68,5.68,0,0,1,102.19,233.16Z"/><path class="cls-4" d="M83.39,282.57a7.24,7.24,0,0,1-2.2-1.64c-1.12-1-2-1.93-1.86-2a7.61,7.61,0,0,1,2.21,1.65C82.66,281.56,83.53,282.47,83.39,282.57Z"/><path class="cls-4" d="M92.68,277.19a12.77,12.77,0,0,1-4.6,2.41,6.87,6.87,0,0,1,2.18-1.43A6.64,6.64,0,0,1,92.68,277.19Z"/><path class="cls-4" d="M102.6,279.53c-.1.11-.92-.48-1.84-1.32s-1.58-1.61-1.48-1.71.92.49,1.83,1.32S102.7,279.43,102.6,279.53Z"/><path class="cls-4" d="M93.31,262.89c.11.1-.3.7-.91,1.35s-1.2,1.1-1.3,1,.31-.7.92-1.35S93.21,262.74,93.31,262.89Z"/><path class="cls-4" d="M70.29,253.31c-.15,0-.24-.88-.21-1.95s.17-1.93.31-1.93.24.88.21,1.95S70.43,253.31,70.29,253.31Z"/><path class="cls-7" d="M74.38,179.89c.1-1.32-1.08-3.14-2.17-4.19a4.3,4.3,0,0,1-1.2-4.59c.44-1.63,1.47-1.51,1.88-2.47a6.8,6.8,0,0,0,.24-2.29,4.78,4.78,0,0,1,5.36-4.12l.34.06A6.62,6.62,0,0,1,91,161a5.09,5.09,0,0,1,6.86,2.17,5,5,0,0,1,.56,2,3.72,3.72,0,0,1,4.82.73,4.57,4.57,0,0,1,.34,5,6,6,0,0,1-4.32,2.85,8.76,8.76,0,0,1-5.19-1,16.52,16.52,0,0,1-4.26-3.21"/><path class="cls-15" d="M88.44,164.39A12.51,12.51,0,0,1,101,176.67c.12,6.21.16,12.83-.15,14.75-1.24,7.81-7.22,8.8-7.22,8.8s-.1,4.89-.12,9.54c0,4.43-3.86,8.1-8.6,8.2h0a8.09,8.09,0,0,1-8.56-7.61.49.49,0,0,1,0-.12L75.93,177A12.51,12.51,0,0,1,88.3,164.39Z"/><path class="cls-7" d="M99.3,180.39a1,1,0,1,1-1-.9A1,1,0,0,1,99.3,180.39Z"/><path class="cls-7" d="M99.53,179.27c-.13.13-.89-.43-2-.43s-1.86.54-2,.41.07-.3.41-.55a2.82,2.82,0,0,1,1.59-.49,2.65,2.65,0,0,1,1.56.51C99.47,179,99.58,179.21,99.53,179.27Z"/><path class="cls-7" d="M88.53,180.39a1,1,0,1,1-1-.9A1,1,0,0,1,88.53,180.39Z"/><path class="cls-7" d="M88.92,179.47c-.13.13-.89-.43-2-.43s-1.87.54-2,.41.07-.29.42-.54a2.75,2.75,0,0,1,3.15,0C88.87,179.17,89,179.41,88.92,179.47Z"/><path class="cls-7" d="M92.83,187.46a7.48,7.48,0,0,1,1.75-.31c.28,0,.54-.09.59-.27a1.46,1.46,0,0,0-.19-.82c-.26-.67-.53-1.36-.81-2.1a35.24,35.24,0,0,1-1.83-5.48,36.62,36.62,0,0,1,2.26,5.32c.28.74.54,1.44.78,2.11a1.56,1.56,0,0,1,.15,1.08.7.7,0,0,1-.46.41,1.76,1.76,0,0,1-.46.06A6.63,6.63,0,0,1,92.83,187.46Z"/><path class="cls-14" d="M93.58,200.22a19.86,19.86,0,0,1-10.47-2.79s2.54,5.37,10.36,4.64Z"/><path class="cls-7" d="M89.66,188.21c.17,0,.18,1.16,1.18,2s2.25.7,2.25.87-.27.22-.8.24a2.93,2.93,0,0,1-1.88-.66,2.58,2.58,0,0,1-.92-1.67C89.45,188.49,89.58,188.2,89.66,188.21Z"/><path class="cls-7" d="M89.2,175.24c-.11.3-1.19.16-2.45.31s-2.29.5-2.46.23c-.07-.12.11-.4.52-.68a4.23,4.23,0,0,1,1.82-.64,4,4,0,0,1,1.92.23C89,174.89,89.24,175.1,89.2,175.24Z"/><path class="cls-7" d="M99.12,176.15c-.19.24-.93,0-1.83,0s-1.64.16-1.82-.1,0-.37.37-.6a2.65,2.65,0,0,1,2.94.09C99.1,175.78,99.2,176,99.12,176.15Z"/><path class="cls-15" d="M76.92,179.78c-.11,0-4.51-1.54-4.56,3s4.54,3.67,4.55,3.54S76.92,179.78,76.92,179.78Z"/><path class="cls-14" d="M75.53,184.59l-.21.11a.78.78,0,0,1-.6,0,2,2,0,0,1-.89-1.78,2.76,2.76,0,0,1,.24-1.13.9.9,0,0,1,.6-.6.4.4,0,0,1,.47.22.26.26,0,0,1,0,.23s.1-.08.07-.27a.47.47,0,0,0-.18-.28.64.64,0,0,0-.44-.13,1.17,1.17,0,0,0-.84.7,2.77,2.77,0,0,0-.28,1.27,2.07,2.07,0,0,0,1.13,2,.89.89,0,0,0,.73-.11C75.53,184.7,75.53,184.59,75.53,184.59Z"/><path class="cls-7" d="M101.9,172.12s-4,2-9.29-.67c-3.44-1.72-7.45-2.56-8.34-1.86s-1.07,4.24-4.48,5.27c0,0,.23,6.78-2.47,6.53s-2.68-12.11-2.68-12.11l8-5.89,8.67-.69,7,2.85,3.87,2.92Z"/><path class="cls-15" d="M114.77,239.45c-1.18-.86-5.84,5.52-5.62,3.55s6.6-7.11,5.34-8c-1.64-1.1-6.41,5.67-6.86,6.21s-1.22-.1-.8-.57c.62-.67,6.9-7.89,5.3-9-.89-.6-1.8,1.13-1.8,1.13s-5.39,7.2-6.13,6.66,2.28-4.89,3.4-6.28.92-2.48-.09-2.48c-.68,0-4.21,4.17-5.29,5.57s-4,5.3-4.07,2.18v-.14c0-3.07-1-5.43-1.81-5.91a1.07,1.07,0,0,0-1.44.47,1,1,0,0,0-.1.67,1.24,1.24,0,0,0,.11.43.26.26,0,0,0,.08.22,15.85,15.85,0,0,1,.37,3.15,8.45,8.45,0,0,1-.38,2.78c-.33,1-.65,1.91-.93,2.64l-.47.56-26.1,14.76h0l.71-15.1v-.6l-15.37.15-.29,20.14a25.22,25.22,0,0,0,.59,5.94c.66,3,1.73,5.71,4.29,7.42,5.84,3.89,15.26,2.71,20.46-2l21.66-19.7,4.49-4.09h0a98.46,98.46,0,0,0,8.25-6.87C115.53,240.07,115.2,239.77,114.77,239.45Z"/><path class="cls-7" d="M65.38,292.13s70.6-20.59,77-17.58,32.79,76.87,32.79,76.87l-20.26,9.85-25.77-63S79,317.79,70.94,316.14,65.38,292.13,65.38,292.13Z"/><path class="cls-7" d="M95.18,290c1,.33,39.71,13,42.4,18s-1.31,96.58-1.31,96.58l-24.51,1,1.13-88.36-42.36-1Z"/><path class="cls-9" d="M70.29,316.22a2.7,2.7,0,0,0,.63-.07l1.77-.32c1.53-.28,3.75-.72,6.48-1.31,5.45-1.16,13-2.91,21.16-5.27,4.09-1.19,8-2.43,11.45-3.63s6.59-2.4,9.16-3.5c1.3-.53,2.45-1.05,3.46-1.51s1.87-.86,2.57-1.21l1.6-.81a3.7,3.7,0,0,0,.55-.31,2.63,2.63,0,0,0-.59.22l-1.64.72q-1.06.5-2.61,1.14c-1,.43-2.17.93-3.47,1.43-2.58,1.06-5.7,2.18-9.18,3.4s-7.35,2.4-11.44,3.59c-8.17,2.35-15.66,4.16-21.1,5.4l-6.44,1.46-1.75.41A4.24,4.24,0,0,0,70.29,316.22Z"/><path class="cls-9" d="M138.16,327.89a5.18,5.18,0,0,0,.2-1.24q.13-1.36.36-3.42c.13-1.48.29-3.19.46-5.08a22.77,22.77,0,0,0,0-6.28,9.75,9.75,0,0,0-3.17-5.43,16.55,16.55,0,0,0-4.33-2.77,32.08,32.08,0,0,0-3.21-1.26,5.68,5.68,0,0,0-1.22-.35c0,.09,1.68.68,4.28,1.93a16.45,16.45,0,0,1,4.17,2.79,9.37,9.37,0,0,1,3,5.18,23.52,23.52,0,0,1,0,6.16c-.14,1.88-.26,3.6-.36,5.08s-.15,2.52-.2,3.43A6.63,6.63,0,0,0,138.16,327.89Z"/><path class="cls-9" d="M84.15,322.17c6.58-.43,3.49-9.86,3.32-20.37-.1-6.59-4.47-13.05-9.25-17.59a22.6,22.6,0,0,0-8.38-4.68,51.94,51.94,0,0,0-25.42-1.64S32,325.61,84.15,322.17Z"/><polygon class="cls-9" points="91.1 267.4 164.37 267.4 175.2 230.72 123.65 231.07 111.68 264.67 91.1 264.98 91.1 267.4"/><circle class="cls-6" cx="145.24" cy="249.78" r="2.87"/></g><g id="freepik--desk-1--inject-6"><path class="cls-7" d="M0,267.44v6.71H17.83V412.06h7.34V283.49H242.22V412h7.31V274.15H264v-6.71Zm25.17,14.21v-7.5H242.22v7.5Z"/><rect class="cls-9" x="199.88" y="232.45" width="40.45" height="5.4"/><path class="cls-3" d="M205.39,232.67a13.05,13.05,0,0,1,0,5.06A13.05,13.05,0,0,1,205.39,232.67Z"/><path class="cls-3" d="M204.53,232.56a13.05,13.05,0,0,1,0,5.06A12.32,12.32,0,0,1,204.53,232.56Z"/><path class="cls-3" d="M237.2,232.67a13.05,13.05,0,0,1,0,5.06A13.05,13.05,0,0,1,237.2,232.67Z"/><path class="cls-3" d="M236.32,232.56a13.05,13.05,0,0,1,0,5.06A13.05,13.05,0,0,1,236.32,232.56Z"/><path class="cls-3" d="M231,235.31c0,.14-4.64.25-10.35.25s-10.35-.11-10.35-.25,4.63-.26,10.35-.26S231,235.17,231,235.31Z"/><rect class="cls-4" x="199.56" y="256.6" width="40.45" height="10.81"/><path class="cls-3" d="M240.53,264.38a.94.94,0,0,1-.22.12c-.14.08-.37.18-.67.31a11.91,11.91,0,0,1-2.74.78,7.05,7.05,0,0,1-4.45-.63,6,6,0,0,1-2.12-1.91,4.48,4.48,0,0,1-.73-3.12,3.22,3.22,0,0,1,.74-1.61,2.15,2.15,0,0,1,1.71-.77,2.46,2.46,0,0,1,1.71.92,3.34,3.34,0,0,1,.78,1.85,4.86,4.86,0,0,1-1.39,3.83,6.19,6.19,0,0,1-3.89,1.9,10.31,10.31,0,0,1-4.51-.56,8.31,8.31,0,0,1-3.94-2.65,4.36,4.36,0,0,1-.92-2.34,3,3,0,0,1,.86-2.42,2,2,0,0,1,1.27-.56,2.35,2.35,0,0,1,1.32.37,3.56,3.56,0,0,1,1.49,2.18,5.1,5.1,0,0,1-1.6,4.77,8,8,0,0,1-4.55,1.85,11.26,11.26,0,0,1-4.72-.47,6.45,6.45,0,0,1-3.59-2.79,4.73,4.73,0,0,1-.45-4.29,2.23,2.23,0,0,1,1.65-1.4,2.64,2.64,0,0,1,2,.49,3.41,3.41,0,0,1,1,3.65,6.43,6.43,0,0,1-2,2.87A9.19,9.19,0,0,1,207,266.9a8.8,8.8,0,0,1-4.39-1,9.11,9.11,0,0,1-2.3-1.69,6.57,6.57,0,0,1-.48-.57c-.1-.13-.15-.2-.14-.21a10.53,10.53,0,0,0,3,2.3,8.74,8.74,0,0,0,9.62-1.26,5.84,5.84,0,0,0,1.9-2.71,3,3,0,0,0-.84-3.19,2.2,2.2,0,0,0-1.7-.4,1.79,1.79,0,0,0-1.32,1.15,4.35,4.35,0,0,0,.44,3.87,6,6,0,0,0,3.34,2.57,10.76,10.76,0,0,0,4.51.43,7.39,7.39,0,0,0,4.27-1.73,4.59,4.59,0,0,0,1.44-4.27,3,3,0,0,0-1.26-1.86,1.54,1.54,0,0,0-2,.12,2.51,2.51,0,0,0-.71,2,3.81,3.81,0,0,0,.82,2.07,7.9,7.9,0,0,0,3.7,2.49,10,10,0,0,0,4.3.55,5.65,5.65,0,0,0,3.61-1.74,4.49,4.49,0,0,0,1.31-3.48,2.6,2.6,0,0,0-2.1-2.42,1.78,1.78,0,0,0-1.41.63A3,3,0,0,0,230,260a4.18,4.18,0,0,0,.65,2.88,5.6,5.6,0,0,0,2,1.84,7,7,0,0,0,4.29.69,12.86,12.86,0,0,0,2.73-.69C239.92,264.57,240.23,264.47,240.53,264.38Z"/><rect class="cls-7" x="203.17" y="237.84" width="36.84" height="18.75"/><path class="cls-2" d="M209.29,238.48a83.37,83.37,0,0,1,.25,9.08,83.18,83.18,0,0,1-.25,9.07,80.75,80.75,0,0,1-.26-9.07A80.92,80.92,0,0,1,209.29,238.48Z"/><path class="cls-2" d="M212.08,238.25a77.24,77.24,0,0,1,.26,9,77.24,77.24,0,0,1-.26,9,79.5,79.5,0,0,1-.25-9A79.5,79.5,0,0,1,212.08,238.25Z"/><path class="cls-2" d="M235.84,237.65a89.91,89.91,0,0,1,.25,9.43,90.1,90.1,0,0,1-.25,9.44,90.1,90.1,0,0,1-.25-9.44A89.91,89.91,0,0,1,235.84,237.65Z"/><path class="cls-2" d="M232.53,237.89a85.4,85.4,0,0,1,.25,9.19,85.4,85.4,0,0,1-.25,9.19,82.89,82.89,0,0,1-.26-9.19A82.89,82.89,0,0,1,232.53,237.89Z"/></g><g id="freepik--Pictures--inject-6"><rect class="cls-7" x="334.54" y="28.58" width="54.11" height="122.73"/><rect class="cls-3" x="337.06" y="31.34" width="49.08" height="117.22"/><rect class="cls-9" x="343.39" y="39.35" width="36.11" height="101.59"/><rect class="cls-7" x="401.37" y="28.58" width="54.11" height="122.73"/><rect class="cls-3" x="403.89" y="31.34" width="49.08" height="117.22"/><rect class="cls-7" x="410.22" y="39.35" width="36.11" height="101.59"/><rect class="cls-7" x="15.52" y="36.07" width="54.11" height="122.73"/><rect class="cls-3" x="18.04" y="38.82" width="49.08" height="117.22"/><rect class="cls-4" x="24.37" y="46.84" width="36.11" height="101.59"/></g></g></g></svg>